<?xml version="1.0" encoding="utf-8" standalone="no"?>
<!DOCTYPE svg PUBLIC "-//W3C//DTD SVG 1.1//EN"
  "http://www.w3.org/Graphics/SVG/1.1/DTD/svg11.dtd">
<svg xmlns:xlink="http://www.w3.org/1999/xlink" width="1080pt" height="288pt" viewBox="0 0 1080 288" xmlns="http://www.w3.org/2000/svg" version="1.1">
 <metadata>
  <rdf:RDF xmlns:dc="http://purl.org/dc/elements/1.1/" xmlns:cc="http://creativecommons.org/ns#" xmlns:rdf="http://www.w3.org/1999/02/22-rdf-syntax-ns#">
   <cc:Work>
    <dc:type rdf:resource="http://purl.org/dc/dcmitype/StillImage"/>
    <dc:date>2026-02-26T18:19:43.405017</dc:date>
    <dc:format>image/svg+xml</dc:format>
    <dc:creator>
     <cc:Agent>
      <dc:title>Matplotlib v3.10.8, https://matplotlib.org/</dc:title>
     </cc:Agent>
    </dc:creator>
   </cc:Work>
  </rdf:RDF>
 </metadata>
 <defs>
  <style type="text/css">*{stroke-linejoin: round; stroke-linecap: butt}</style>
 </defs>
 <g id="figure_1">
  <g id="patch_1">
   <path d="M 0 288 
L 1080 288 
L 1080 0 
L 0 0 
z
" style="fill: #ffffff"/>
  </g>
  <g id="axes_1">
   <g id="patch_2">
    <path d="M 57.26 246.04 
L 350.621921 246.04 
L 350.621921 26.88 
L 57.26 26.88 
z
" style="fill: #ffffff"/>
   </g>
   <g id="patch_3">
    <path d="M 70.594633 246.04 
L 79.484388 246.04 
L 79.484388 242.890878 
L 70.594633 242.890878 
z
" clip-path="url(#p14f3eb440c)" style="fill: #1f77b4; opacity: 0.7; stroke: #000000; stroke-linejoin: miter"/>
   </g>
   <g id="patch_4">
    <path d="M 79.484388 246.04 
L 88.374143 246.04 
L 88.374143 245.158246 
L 79.484388 245.158246 
z
" clip-path="url(#p14f3eb440c)" style="fill: #1f77b4; opacity: 0.7; stroke: #000000; stroke-linejoin: miter"/>
   </g>
   <g id="patch_5">
    <path d="M 88.374143 246.04 
L 97.263898 246.04 
L 97.263898 240.37158 
L 88.374143 240.37158 
z
" clip-path="url(#p14f3eb440c)" style="fill: #1f77b4; opacity: 0.7; stroke: #000000; stroke-linejoin: miter"/>
   </g>
   <g id="patch_6">
    <path d="M 97.263898 246.04 
L 106.153654 246.04 
L 106.153654 222.106672 
L 97.263898 222.106672 
z
" clip-path="url(#p14f3eb440c)" style="fill: #1f77b4; opacity: 0.7; stroke: #000000; stroke-linejoin: miter"/>
   </g>
   <g id="patch_7">
    <path d="M 106.153654 246.04 
L 115.043409 246.04 
L 115.043409 190.489487 
L 106.153654 190.489487 
z
" clip-path="url(#p14f3eb440c)" style="fill: #1f77b4; opacity: 0.7; stroke: #000000; stroke-linejoin: miter"/>
   </g>
   <g id="patch_8">
    <path d="M 115.043409 246.04 
L 123.933164 246.04 
L 123.933164 140.733359 
L 115.043409 140.733359 
z
" clip-path="url(#p14f3eb440c)" style="fill: #1f77b4; opacity: 0.7; stroke: #000000; stroke-linejoin: miter"/>
   </g>
   <g id="patch_9">
    <path d="M 123.933164 246.04 
L 132.822919 246.04 
L 132.822919 83.797232 
L 123.933164 83.797232 
z
" clip-path="url(#p14f3eb440c)" style="fill: #1f77b4; opacity: 0.7; stroke: #000000; stroke-linejoin: miter"/>
   </g>
   <g id="patch_10">
    <path d="M 132.822919 246.04 
L 141.712674 246.04 
L 141.712674 37.31619 
L 132.822919 37.31619 
z
" clip-path="url(#p14f3eb440c)" style="fill: #1f77b4; opacity: 0.7; stroke: #000000; stroke-linejoin: miter"/>
   </g>
   <g id="patch_11">
    <path d="M 141.712674 246.04 
L 150.60243 246.04 
L 150.60243 66.791973 
L 141.712674 66.791973 
z
" clip-path="url(#p14f3eb440c)" style="fill: #1f77b4; opacity: 0.7; stroke: #000000; stroke-linejoin: miter"/>
   </g>
   <g id="patch_12">
    <path d="M 150.60243 246.04 
L 159.492185 246.04 
L 159.492185 91.607055 
L 150.60243 91.607055 
z
" clip-path="url(#p14f3eb440c)" style="fill: #1f77b4; opacity: 0.7; stroke: #000000; stroke-linejoin: miter"/>
   </g>
   <g id="patch_13">
    <path d="M 159.492185 246.04 
L 168.38194 246.04 
L 168.38194 132.923536 
L 159.492185 132.923536 
z
" clip-path="url(#p14f3eb440c)" style="fill: #1f77b4; opacity: 0.7; stroke: #000000; stroke-linejoin: miter"/>
   </g>
   <g id="patch_14">
    <path d="M 168.38194 246.04 
L 177.271695 246.04 
L 177.271695 155.849144 
L 168.38194 155.849144 
z
" clip-path="url(#p14f3eb440c)" style="fill: #1f77b4; opacity: 0.7; stroke: #000000; stroke-linejoin: miter"/>
   </g>
   <g id="patch_15">
    <path d="M 177.271695 246.04 
L 186.16145 246.04 
L 186.16145 184.821067 
L 177.271695 184.821067 
z
" clip-path="url(#p14f3eb440c)" style="fill: #1f77b4; opacity: 0.7; stroke: #000000; stroke-linejoin: miter"/>
   </g>
   <g id="patch_16">
    <path d="M 186.16145 246.04 
L 195.051206 246.04 
L 195.051206 208.62843 
L 186.16145 208.62843 
z
" clip-path="url(#p14f3eb440c)" style="fill: #1f77b4; opacity: 0.7; stroke: #000000; stroke-linejoin: miter"/>
   </g>
   <g id="patch_17">
    <path d="M 195.051206 246.04 
L 203.940961 246.04 
L 203.940961 221.224918 
L 195.051206 221.224918 
z
" clip-path="url(#p14f3eb440c)" style="fill: #1f77b4; opacity: 0.7; stroke: #000000; stroke-linejoin: miter"/>
   </g>
   <g id="patch_18">
    <path d="M 203.940961 246.04 
L 212.830716 246.04 
L 212.830716 231.554039 
L 203.940961 231.554039 
z
" clip-path="url(#p14f3eb440c)" style="fill: #1f77b4; opacity: 0.7; stroke: #000000; stroke-linejoin: miter"/>
   </g>
   <g id="patch_19">
    <path d="M 212.830716 246.04 
L 221.720471 246.04 
L 221.720471 239.363861 
L 212.830716 239.363861 
z
" clip-path="url(#p14f3eb440c)" style="fill: #1f77b4; opacity: 0.7; stroke: #000000; stroke-linejoin: miter"/>
   </g>
   <g id="patch_20">
    <path d="M 221.720471 246.04 
L 230.610226 246.04 
L 230.610226 241.12737 
L 221.720471 241.12737 
z
" clip-path="url(#p14f3eb440c)" style="fill: #1f77b4; opacity: 0.7; stroke: #000000; stroke-linejoin: miter"/>
   </g>
   <g id="patch_21">
    <path d="M 230.610226 246.04 
L 239.499982 246.04 
L 239.499982 243.016843 
L 230.610226 243.016843 
z
" clip-path="url(#p14f3eb440c)" style="fill: #1f77b4; opacity: 0.7; stroke: #000000; stroke-linejoin: miter"/>
   </g>
   <g id="patch_22">
    <path d="M 239.499982 246.04 
L 248.389737 246.04 
L 248.389737 244.654386 
L 239.499982 244.654386 
z
" clip-path="url(#p14f3eb440c)" style="fill: #1f77b4; opacity: 0.7; stroke: #000000; stroke-linejoin: miter"/>
   </g>
   <g id="patch_23">
    <path d="M 248.389737 246.04 
L 257.279492 246.04 
L 257.279492 245.032281 
L 248.389737 245.032281 
z
" clip-path="url(#p14f3eb440c)" style="fill: #1f77b4; opacity: 0.7; stroke: #000000; stroke-linejoin: miter"/>
   </g>
   <g id="patch_24">
    <path d="M 257.279492 246.04 
L 266.169247 246.04 
L 266.169247 245.410176 
L 257.279492 245.410176 
z
" clip-path="url(#p14f3eb440c)" style="fill: #1f77b4; opacity: 0.7; stroke: #000000; stroke-linejoin: miter"/>
   </g>
   <g id="patch_25">
    <path d="M 266.169247 246.04 
L 275.059002 246.04 
L 275.059002 245.53614 
L 266.169247 245.53614 
z
" clip-path="url(#p14f3eb440c)" style="fill: #1f77b4; opacity: 0.7; stroke: #000000; stroke-linejoin: miter"/>
   </g>
   <g id="patch_26">
    <path d="M 275.059002 246.04 
L 283.948757 246.04 
L 283.948757 245.78807 
L 275.059002 245.78807 
z
" clip-path="url(#p14f3eb440c)" style="fill: #1f77b4; opacity: 0.7; stroke: #000000; stroke-linejoin: miter"/>
   </g>
   <g id="patch_27">
    <path d="M 283.948757 246.04 
L 292.838513 246.04 
L 292.838513 245.53614 
L 283.948757 245.53614 
z
" clip-path="url(#p14f3eb440c)" style="fill: #1f77b4; opacity: 0.7; stroke: #000000; stroke-linejoin: miter"/>
   </g>
   <g id="patch_28">
    <path d="M 292.838513 246.04 
L 301.728268 246.04 
L 301.728268 246.04 
L 292.838513 246.04 
z
" clip-path="url(#p14f3eb440c)" style="fill: #1f77b4; opacity: 0.7; stroke: #000000; stroke-linejoin: miter"/>
   </g>
   <g id="patch_29">
    <path d="M 301.728268 246.04 
L 310.618023 246.04 
L 310.618023 246.04 
L 301.728268 246.04 
z
" clip-path="url(#p14f3eb440c)" style="fill: #1f77b4; opacity: 0.7; stroke: #000000; stroke-linejoin: miter"/>
   </g>
   <g id="patch_30">
    <path d="M 310.618023 246.04 
L 319.507778 246.04 
L 319.507778 245.914035 
L 310.618023 245.914035 
z
" clip-path="url(#p14f3eb440c)" style="fill: #1f77b4; opacity: 0.7; stroke: #000000; stroke-linejoin: miter"/>
   </g>
   <g id="patch_31">
    <path d="M 319.507778 246.04 
L 328.397533 246.04 
L 328.397533 246.04 
L 319.507778 246.04 
z
" clip-path="url(#p14f3eb440c)" style="fill: #1f77b4; opacity: 0.7; stroke: #000000; stroke-linejoin: miter"/>
   </g>
   <g id="patch_32">
    <path d="M 328.397533 246.04 
L 337.287289 246.04 
L 337.287289 245.78807 
L 328.397533 245.78807 
z
" clip-path="url(#p14f3eb440c)" style="fill: #1f77b4; opacity: 0.7; stroke: #000000; stroke-linejoin: miter"/>
   </g>
   <g id="matplotlib.axis_1">
    <g id="xtick_1">
     <g id="line2d_1">
      <defs>
       <path id="mcfe17c1160" d="M 0 0 
L 0 3.5 
" style="stroke: #000000; stroke-width: 0.8"/>
      </defs>
      <g>
       <use xlink:href="#mcfe17c1160" x="69.796152" y="246.04" style="stroke: #000000; stroke-width: 0.8"/>
      </g>
     </g>
     <g id="text_1">
      <!-- 0 -->
      <g transform="translate(66.614902 260.638438) scale(0.1 -0.1)">
       <defs>
        <path id="DejaVuSans-30" d="M 2034 4250 
Q 1547 4250 1301 3770 
Q 1056 3291 1056 2328 
Q 1056 1369 1301 889 
Q 1547 409 2034 409 
Q 2525 409 2770 889 
Q 3016 1369 3016 2328 
Q 3016 3291 2770 3770 
Q 2525 4250 2034 4250 
z
M 2034 4750 
Q 2819 4750 3233 4129 
Q 3647 3509 3647 2328 
Q 3647 1150 3233 529 
Q 2819 -91 2034 -91 
Q 1250 -91 836 529 
Q 422 1150 422 2328 
Q 422 3509 836 4129 
Q 1250 4750 2034 4750 
z
" transform="scale(0.015625)"/>
       </defs>
       <use xlink:href="#DejaVuSans-30"/>
      </g>
     </g>
    </g>
    <g id="xtick_2">
     <g id="line2d_2">
      <g>
       <use xlink:href="#mcfe17c1160" x="109.720202" y="246.04" style="stroke: #000000; stroke-width: 0.8"/>
      </g>
     </g>
     <g id="text_2">
      <!-- 50 -->
      <g transform="translate(103.357702 260.638438) scale(0.1 -0.1)">
       <defs>
        <path id="DejaVuSans-35" d="M 691 4666 
L 3169 4666 
L 3169 4134 
L 1269 4134 
L 1269 2991 
Q 1406 3038 1543 3061 
Q 1681 3084 1819 3084 
Q 2600 3084 3056 2656 
Q 3513 2228 3513 1497 
Q 3513 744 3044 326 
Q 2575 -91 1722 -91 
Q 1428 -91 1123 -41 
Q 819 9 494 109 
L 494 744 
Q 775 591 1075 516 
Q 1375 441 1709 441 
Q 2250 441 2565 725 
Q 2881 1009 2881 1497 
Q 2881 1984 2565 2268 
Q 2250 2553 1709 2553 
Q 1456 2553 1204 2497 
Q 953 2441 691 2322 
L 691 4666 
z
" transform="scale(0.015625)"/>
       </defs>
       <use xlink:href="#DejaVuSans-35"/>
       <use xlink:href="#DejaVuSans-30" transform="translate(63.623047 0)"/>
      </g>
     </g>
    </g>
    <g id="xtick_3">
     <g id="line2d_3">
      <g>
       <use xlink:href="#mcfe17c1160" x="149.644252" y="246.04" style="stroke: #000000; stroke-width: 0.8"/>
      </g>
     </g>
     <g id="text_3">
      <!-- 100 -->
      <g transform="translate(140.100502 260.638438) scale(0.1 -0.1)">
       <defs>
        <path id="DejaVuSans-31" d="M 794 531 
L 1825 531 
L 1825 4091 
L 703 3866 
L 703 4441 
L 1819 4666 
L 2450 4666 
L 2450 531 
L 3481 531 
L 3481 0 
L 794 0 
L 794 531 
z
" transform="scale(0.015625)"/>
       </defs>
       <use xlink:href="#DejaVuSans-31"/>
       <use xlink:href="#DejaVuSans-30" transform="translate(63.623047 0)"/>
       <use xlink:href="#DejaVuSans-30" transform="translate(127.246094 0)"/>
      </g>
     </g>
    </g>
    <g id="xtick_4">
     <g id="line2d_4">
      <g>
       <use xlink:href="#mcfe17c1160" x="189.568303" y="246.04" style="stroke: #000000; stroke-width: 0.8"/>
      </g>
     </g>
     <g id="text_4">
      <!-- 150 -->
      <g transform="translate(180.024553 260.638438) scale(0.1 -0.1)">
       <use xlink:href="#DejaVuSans-31"/>
       <use xlink:href="#DejaVuSans-35" transform="translate(63.623047 0)"/>
       <use xlink:href="#DejaVuSans-30" transform="translate(127.246094 0)"/>
      </g>
     </g>
    </g>
    <g id="xtick_5">
     <g id="line2d_5">
      <g>
       <use xlink:href="#mcfe17c1160" x="229.492353" y="246.04" style="stroke: #000000; stroke-width: 0.8"/>
      </g>
     </g>
     <g id="text_5">
      <!-- 200 -->
      <g transform="translate(219.948603 260.638438) scale(0.1 -0.1)">
       <defs>
        <path id="DejaVuSans-32" d="M 1228 531 
L 3431 531 
L 3431 0 
L 469 0 
L 469 531 
Q 828 903 1448 1529 
Q 2069 2156 2228 2338 
Q 2531 2678 2651 2914 
Q 2772 3150 2772 3378 
Q 2772 3750 2511 3984 
Q 2250 4219 1831 4219 
Q 1534 4219 1204 4116 
Q 875 4013 500 3803 
L 500 4441 
Q 881 4594 1212 4672 
Q 1544 4750 1819 4750 
Q 2544 4750 2975 4387 
Q 3406 4025 3406 3419 
Q 3406 3131 3298 2873 
Q 3191 2616 2906 2266 
Q 2828 2175 2409 1742 
Q 1991 1309 1228 531 
z
" transform="scale(0.015625)"/>
       </defs>
       <use xlink:href="#DejaVuSans-32"/>
       <use xlink:href="#DejaVuSans-30" transform="translate(63.623047 0)"/>
       <use xlink:href="#DejaVuSans-30" transform="translate(127.246094 0)"/>
      </g>
     </g>
    </g>
    <g id="xtick_6">
     <g id="line2d_6">
      <g>
       <use xlink:href="#mcfe17c1160" x="269.416403" y="246.04" style="stroke: #000000; stroke-width: 0.8"/>
      </g>
     </g>
     <g id="text_6">
      <!-- 250 -->
      <g transform="translate(259.872653 260.638438) scale(0.1 -0.1)">
       <use xlink:href="#DejaVuSans-32"/>
       <use xlink:href="#DejaVuSans-35" transform="translate(63.623047 0)"/>
       <use xlink:href="#DejaVuSans-30" transform="translate(127.246094 0)"/>
      </g>
     </g>
    </g>
    <g id="xtick_7">
     <g id="line2d_7">
      <g>
       <use xlink:href="#mcfe17c1160" x="309.340453" y="246.04" style="stroke: #000000; stroke-width: 0.8"/>
      </g>
     </g>
     <g id="text_7">
      <!-- 300 -->
      <g transform="translate(299.796703 260.638438) scale(0.1 -0.1)">
       <defs>
        <path id="DejaVuSans-33" d="M 2597 2516 
Q 3050 2419 3304 2112 
Q 3559 1806 3559 1356 
Q 3559 666 3084 287 
Q 2609 -91 1734 -91 
Q 1441 -91 1130 -33 
Q 819 25 488 141 
L 488 750 
Q 750 597 1062 519 
Q 1375 441 1716 441 
Q 2309 441 2620 675 
Q 2931 909 2931 1356 
Q 2931 1769 2642 2001 
Q 2353 2234 1838 2234 
L 1294 2234 
L 1294 2753 
L 1863 2753 
Q 2328 2753 2575 2939 
Q 2822 3125 2822 3475 
Q 2822 3834 2567 4026 
Q 2313 4219 1838 4219 
Q 1578 4219 1281 4162 
Q 984 4106 628 3988 
L 628 4550 
Q 988 4650 1302 4700 
Q 1616 4750 1894 4750 
Q 2613 4750 3031 4423 
Q 3450 4097 3450 3541 
Q 3450 3153 3228 2886 
Q 3006 2619 2597 2516 
z
" transform="scale(0.015625)"/>
       </defs>
       <use xlink:href="#DejaVuSans-33"/>
       <use xlink:href="#DejaVuSans-30" transform="translate(63.623047 0)"/>
       <use xlink:href="#DejaVuSans-30" transform="translate(127.246094 0)"/>
      </g>
     </g>
    </g>
    <g id="xtick_8">
     <g id="line2d_8">
      <g>
       <use xlink:href="#mcfe17c1160" x="349.264504" y="246.04" style="stroke: #000000; stroke-width: 0.8"/>
      </g>
     </g>
     <g id="text_8">
      <!-- 350 -->
      <g transform="translate(339.720754 260.638438) scale(0.1 -0.1)">
       <use xlink:href="#DejaVuSans-33"/>
       <use xlink:href="#DejaVuSans-35" transform="translate(63.623047 0)"/>
       <use xlink:href="#DejaVuSans-30" transform="translate(127.246094 0)"/>
      </g>
     </g>
    </g>
    <g id="text_9">
     <!-- Признаков в документе -->
     <g transform="translate(141.012054 274.316562) scale(0.1 -0.1)">
      <defs>
       <path id="DejaVuSans-41f" d="M 4184 4666 
L 4184 0 
L 3553 0 
L 3553 4134 
L 1259 4134 
L 1259 0 
L 628 0 
L 628 4666 
L 4184 4666 
z
" transform="scale(0.015625)"/>
       <path id="DejaVuSans-440" d="M 1159 525 
L 1159 -1331 
L 581 -1331 
L 581 3500 
L 1159 3500 
L 1159 2969 
Q 1341 3281 1617 3432 
Q 1894 3584 2278 3584 
Q 2916 3584 3314 3078 
Q 3713 2572 3713 1747 
Q 3713 922 3314 415 
Q 2916 -91 2278 -91 
Q 1894 -91 1617 61 
Q 1341 213 1159 525 
z
M 3116 1747 
Q 3116 2381 2855 2742 
Q 2594 3103 2138 3103 
Q 1681 3103 1420 2742 
Q 1159 2381 1159 1747 
Q 1159 1113 1420 752 
Q 1681 391 2138 391 
Q 2594 391 2855 752 
Q 3116 1113 3116 1747 
z
" transform="scale(0.015625)"/>
       <path id="DejaVuSans-438" d="M 3578 3500 
L 3578 0 
L 3006 0 
L 3006 2809 
L 1319 0 
L 581 0 
L 581 3500 
L 1153 3500 
L 1153 697 
L 2838 3500 
L 3578 3500 
z
" transform="scale(0.015625)"/>
       <path id="DejaVuSans-437" d="M 2206 1888 
Q 2594 1813 2809 1584 
Q 3025 1356 3025 1019 
Q 3025 478 2622 193 
Q 2219 -91 1475 -91 
Q 1225 -91 961 -47 
Q 697 -3 416 84 
L 416 619 
Q 638 503 903 445 
Q 1169 388 1459 388 
Q 1931 388 2195 563 
Q 2459 738 2459 1019 
Q 2459 1294 2225 1461 
Q 1991 1628 1563 1628 
L 1100 1628 
L 1100 2103 
L 1584 2103 
Q 1947 2103 2158 2242 
Q 2369 2381 2369 2600 
Q 2369 2800 2151 2944 
Q 1934 3088 1563 3088 
Q 1341 3088 1089 3047 
Q 838 3006 534 2916 
L 534 3438 
Q 841 3513 1106 3550 
Q 1372 3588 1609 3588 
Q 2222 3588 2576 3342 
Q 2931 3097 2931 2656 
Q 2931 2366 2743 2164 
Q 2556 1963 2206 1888 
z
" transform="scale(0.015625)"/>
       <path id="DejaVuSans-43d" d="M 581 3500 
L 1159 3500 
L 1159 2072 
L 3025 2072 
L 3025 3500 
L 3603 3500 
L 3603 0 
L 3025 0 
L 3025 1613 
L 1159 1613 
L 1159 0 
L 581 0 
L 581 3500 
z
" transform="scale(0.015625)"/>
       <path id="DejaVuSans-430" d="M 2194 1759 
Q 1497 1759 1228 1600 
Q 959 1441 959 1056 
Q 959 750 1161 570 
Q 1363 391 1709 391 
Q 2188 391 2477 730 
Q 2766 1069 2766 1631 
L 2766 1759 
L 2194 1759 
z
M 3341 1997 
L 3341 0 
L 2766 0 
L 2766 531 
Q 2569 213 2275 61 
Q 1981 -91 1556 -91 
Q 1019 -91 701 211 
Q 384 513 384 1019 
Q 384 1609 779 1909 
Q 1175 2209 1959 2209 
L 2766 2209 
L 2766 2266 
Q 2766 2663 2505 2880 
Q 2244 3097 1772 3097 
Q 1472 3097 1187 3025 
Q 903 2953 641 2809 
L 641 3341 
Q 956 3463 1253 3523 
Q 1550 3584 1831 3584 
Q 2591 3584 2966 3190 
Q 3341 2797 3341 1997 
z
" transform="scale(0.015625)"/>
       <path id="DejaVuSans-43a" d="M 581 3500 
L 1153 3500 
L 1153 1856 
L 2775 3500 
L 3481 3500 
L 2144 2147 
L 3653 0 
L 3009 0 
L 1769 1766 
L 1153 1141 
L 1153 0 
L 581 0 
L 581 3500 
z
" transform="scale(0.015625)"/>
       <path id="DejaVuSans-43e" d="M 1959 3097 
Q 1497 3097 1228 2736 
Q 959 2375 959 1747 
Q 959 1119 1226 758 
Q 1494 397 1959 397 
Q 2419 397 2687 759 
Q 2956 1122 2956 1747 
Q 2956 2369 2687 2733 
Q 2419 3097 1959 3097 
z
M 1959 3584 
Q 2709 3584 3137 3096 
Q 3566 2609 3566 1747 
Q 3566 888 3137 398 
Q 2709 -91 1959 -91 
Q 1206 -91 779 398 
Q 353 888 353 1747 
Q 353 2609 779 3096 
Q 1206 3584 1959 3584 
z
" transform="scale(0.015625)"/>
       <path id="DejaVuSans-432" d="M 1156 1613 
L 1156 459 
L 1975 459 
Q 2369 459 2575 607 
Q 2781 756 2781 1038 
Q 2781 1319 2575 1466 
Q 2369 1613 1975 1613 
L 1156 1613 
z
M 1156 3041 
L 1156 2072 
L 1913 2072 
Q 2238 2072 2444 2201 
Q 2650 2331 2650 2563 
Q 2650 2794 2444 2917 
Q 2238 3041 1913 3041 
L 1156 3041 
z
M 581 3500 
L 1950 3500 
Q 2566 3500 2897 3275 
Q 3228 3050 3228 2634 
Q 3228 2313 3059 2123 
Q 2891 1934 2559 1888 
Q 2956 1813 3175 1575 
Q 3394 1338 3394 981 
Q 3394 513 3033 256 
Q 2672 0 2003 0 
L 581 0 
L 581 3500 
z
" transform="scale(0.015625)"/>
       <path id="DejaVuSans-20" transform="scale(0.015625)"/>
       <path id="DejaVuSans-434" d="M 1384 459 
L 3053 459 
L 3053 3041 
L 1844 3041 
L 1844 2603 
Q 1844 1316 1475 628 
L 1384 459 
z
M 550 459 
Q 834 584 959 850 
Q 1266 1509 1266 2838 
L 1266 3500 
L 3631 3500 
L 3631 459 
L 4091 459 
L 4091 -884 
L 3631 -884 
L 3631 0 
L 794 0 
L 794 -884 
L 334 -884 
L 334 459 
L 550 459 
z
" transform="scale(0.015625)"/>
       <path id="DejaVuSans-443" d="M 2059 -325 
Q 1816 -950 1584 -1140 
Q 1353 -1331 966 -1331 
L 506 -1331 
L 506 -850 
L 844 -850 
Q 1081 -850 1212 -737 
Q 1344 -625 1503 -206 
L 1606 56 
L 191 3500 
L 800 3500 
L 1894 763 
L 2988 3500 
L 3597 3500 
L 2059 -325 
z
" transform="scale(0.015625)"/>
       <path id="DejaVuSans-43c" d="M 581 3500 
L 1422 3500 
L 2416 1156 
L 3413 3500 
L 4247 3500 
L 4247 0 
L 3669 0 
L 3669 2950 
L 2703 672 
L 2128 672 
L 1159 2950 
L 1159 0 
L 581 0 
L 581 3500 
z
" transform="scale(0.015625)"/>
       <path id="DejaVuSans-435" d="M 3597 1894 
L 3597 1613 
L 953 1613 
Q 991 1019 1311 708 
Q 1631 397 2203 397 
Q 2534 397 2845 478 
Q 3156 559 3463 722 
L 3463 178 
Q 3153 47 2828 -22 
Q 2503 -91 2169 -91 
Q 1331 -91 842 396 
Q 353 884 353 1716 
Q 353 2575 817 3079 
Q 1281 3584 2069 3584 
Q 2775 3584 3186 3129 
Q 3597 2675 3597 1894 
z
M 3022 2063 
Q 3016 2534 2758 2815 
Q 2500 3097 2075 3097 
Q 1594 3097 1305 2825 
Q 1016 2553 972 2059 
L 3022 2063 
z
" transform="scale(0.015625)"/>
       <path id="DejaVuSans-442" d="M 188 3500 
L 3541 3500 
L 3541 3041 
L 2147 3041 
L 2147 0 
L 1581 0 
L 1581 3041 
L 188 3041 
L 188 3500 
z
" transform="scale(0.015625)"/>
      </defs>
      <use xlink:href="#DejaVuSans-41f"/>
      <use xlink:href="#DejaVuSans-440" transform="translate(75.195312 0)"/>
      <use xlink:href="#DejaVuSans-438" transform="translate(138.671875 0)"/>
      <use xlink:href="#DejaVuSans-437" transform="translate(203.662109 0)"/>
      <use xlink:href="#DejaVuSans-43d" transform="translate(256.835938 0)"/>
      <use xlink:href="#DejaVuSans-430" transform="translate(322.216797 0)"/>
      <use xlink:href="#DejaVuSans-43a" transform="translate(383.496094 0)"/>
      <use xlink:href="#DejaVuSans-43e" transform="translate(443.896484 0)"/>
      <use xlink:href="#DejaVuSans-432" transform="translate(505.078125 0)"/>
      <use xlink:href="#DejaVuSans-20" transform="translate(564.013672 0)"/>
      <use xlink:href="#DejaVuSans-432" transform="translate(595.800781 0)"/>
      <use xlink:href="#DejaVuSans-20" transform="translate(654.736328 0)"/>
      <use xlink:href="#DejaVuSans-434" transform="translate(686.523438 0)"/>
      <use xlink:href="#DejaVuSans-43e" transform="translate(755.664062 0)"/>
      <use xlink:href="#DejaVuSans-43a" transform="translate(816.845703 0)"/>
      <use xlink:href="#DejaVuSans-443" transform="translate(877.246094 0)"/>
      <use xlink:href="#DejaVuSans-43c" transform="translate(936.425781 0)"/>
      <use xlink:href="#DejaVuSans-435" transform="translate(1011.865234 0)"/>
      <use xlink:href="#DejaVuSans-43d" transform="translate(1073.388672 0)"/>
      <use xlink:href="#DejaVuSans-442" transform="translate(1138.769531 0)"/>
      <use xlink:href="#DejaVuSans-435" transform="translate(1197.021484 0)"/>
     </g>
    </g>
   </g>
   <g id="matplotlib.axis_2">
    <g id="ytick_1">
     <g id="line2d_9">
      <defs>
       <path id="m156237a3fb" d="M 0 0 
L -3.5 0 
" style="stroke: #000000; stroke-width: 0.8"/>
      </defs>
      <g>
       <use xlink:href="#m156237a3fb" x="57.26" y="246.04" style="stroke: #000000; stroke-width: 0.8"/>
      </g>
     </g>
     <g id="text_10">
      <!-- 0 -->
      <g transform="translate(43.8975 249.839219) scale(0.1 -0.1)">
       <use xlink:href="#DejaVuSans-30"/>
      </g>
     </g>
    </g>
    <g id="ytick_2">
     <g id="line2d_10">
      <g>
       <use xlink:href="#m156237a3fb" x="57.26" y="220.847024" style="stroke: #000000; stroke-width: 0.8"/>
      </g>
     </g>
     <g id="text_11">
      <!-- 200 -->
      <g transform="translate(31.1725 224.646242) scale(0.1 -0.1)">
       <use xlink:href="#DejaVuSans-32"/>
       <use xlink:href="#DejaVuSans-30" transform="translate(63.623047 0)"/>
       <use xlink:href="#DejaVuSans-30" transform="translate(127.246094 0)"/>
      </g>
     </g>
    </g>
    <g id="ytick_3">
     <g id="line2d_11">
      <g>
       <use xlink:href="#m156237a3fb" x="57.26" y="195.654047" style="stroke: #000000; stroke-width: 0.8"/>
      </g>
     </g>
     <g id="text_12">
      <!-- 400 -->
      <g transform="translate(31.1725 199.453266) scale(0.1 -0.1)">
       <defs>
        <path id="DejaVuSans-34" d="M 2419 4116 
L 825 1625 
L 2419 1625 
L 2419 4116 
z
M 2253 4666 
L 3047 4666 
L 3047 1625 
L 3713 1625 
L 3713 1100 
L 3047 1100 
L 3047 0 
L 2419 0 
L 2419 1100 
L 313 1100 
L 313 1709 
L 2253 4666 
z
" transform="scale(0.015625)"/>
       </defs>
       <use xlink:href="#DejaVuSans-34"/>
       <use xlink:href="#DejaVuSans-30" transform="translate(63.623047 0)"/>
       <use xlink:href="#DejaVuSans-30" transform="translate(127.246094 0)"/>
      </g>
     </g>
    </g>
    <g id="ytick_4">
     <g id="line2d_12">
      <g>
       <use xlink:href="#m156237a3fb" x="57.26" y="170.461071" style="stroke: #000000; stroke-width: 0.8"/>
      </g>
     </g>
     <g id="text_13">
      <!-- 600 -->
      <g transform="translate(31.1725 174.26029) scale(0.1 -0.1)">
       <defs>
        <path id="DejaVuSans-36" d="M 2113 2584 
Q 1688 2584 1439 2293 
Q 1191 2003 1191 1497 
Q 1191 994 1439 701 
Q 1688 409 2113 409 
Q 2538 409 2786 701 
Q 3034 994 3034 1497 
Q 3034 2003 2786 2293 
Q 2538 2584 2113 2584 
z
M 3366 4563 
L 3366 3988 
Q 3128 4100 2886 4159 
Q 2644 4219 2406 4219 
Q 1781 4219 1451 3797 
Q 1122 3375 1075 2522 
Q 1259 2794 1537 2939 
Q 1816 3084 2150 3084 
Q 2853 3084 3261 2657 
Q 3669 2231 3669 1497 
Q 3669 778 3244 343 
Q 2819 -91 2113 -91 
Q 1303 -91 875 529 
Q 447 1150 447 2328 
Q 447 3434 972 4092 
Q 1497 4750 2381 4750 
Q 2619 4750 2861 4703 
Q 3103 4656 3366 4563 
z
" transform="scale(0.015625)"/>
       </defs>
       <use xlink:href="#DejaVuSans-36"/>
       <use xlink:href="#DejaVuSans-30" transform="translate(63.623047 0)"/>
       <use xlink:href="#DejaVuSans-30" transform="translate(127.246094 0)"/>
      </g>
     </g>
    </g>
    <g id="ytick_5">
     <g id="line2d_13">
      <g>
       <use xlink:href="#m156237a3fb" x="57.26" y="145.268094" style="stroke: #000000; stroke-width: 0.8"/>
      </g>
     </g>
     <g id="text_14">
      <!-- 800 -->
      <g transform="translate(31.1725 149.067313) scale(0.1 -0.1)">
       <defs>
        <path id="DejaVuSans-38" d="M 2034 2216 
Q 1584 2216 1326 1975 
Q 1069 1734 1069 1313 
Q 1069 891 1326 650 
Q 1584 409 2034 409 
Q 2484 409 2743 651 
Q 3003 894 3003 1313 
Q 3003 1734 2745 1975 
Q 2488 2216 2034 2216 
z
M 1403 2484 
Q 997 2584 770 2862 
Q 544 3141 544 3541 
Q 544 4100 942 4425 
Q 1341 4750 2034 4750 
Q 2731 4750 3128 4425 
Q 3525 4100 3525 3541 
Q 3525 3141 3298 2862 
Q 3072 2584 2669 2484 
Q 3125 2378 3379 2068 
Q 3634 1759 3634 1313 
Q 3634 634 3220 271 
Q 2806 -91 2034 -91 
Q 1263 -91 848 271 
Q 434 634 434 1313 
Q 434 1759 690 2068 
Q 947 2378 1403 2484 
z
M 1172 3481 
Q 1172 3119 1398 2916 
Q 1625 2713 2034 2713 
Q 2441 2713 2670 2916 
Q 2900 3119 2900 3481 
Q 2900 3844 2670 4047 
Q 2441 4250 2034 4250 
Q 1625 4250 1398 4047 
Q 1172 3844 1172 3481 
z
" transform="scale(0.015625)"/>
       </defs>
       <use xlink:href="#DejaVuSans-38"/>
       <use xlink:href="#DejaVuSans-30" transform="translate(63.623047 0)"/>
       <use xlink:href="#DejaVuSans-30" transform="translate(127.246094 0)"/>
      </g>
     </g>
    </g>
    <g id="ytick_6">
     <g id="line2d_14">
      <g>
       <use xlink:href="#m156237a3fb" x="57.26" y="120.075118" style="stroke: #000000; stroke-width: 0.8"/>
      </g>
     </g>
     <g id="text_15">
      <!-- 1000 -->
      <g transform="translate(24.81 123.874337) scale(0.1 -0.1)">
       <use xlink:href="#DejaVuSans-31"/>
       <use xlink:href="#DejaVuSans-30" transform="translate(63.623047 0)"/>
       <use xlink:href="#DejaVuSans-30" transform="translate(127.246094 0)"/>
       <use xlink:href="#DejaVuSans-30" transform="translate(190.869141 0)"/>
      </g>
     </g>
    </g>
    <g id="ytick_7">
     <g id="line2d_15">
      <g>
       <use xlink:href="#m156237a3fb" x="57.26" y="94.882142" style="stroke: #000000; stroke-width: 0.8"/>
      </g>
     </g>
     <g id="text_16">
      <!-- 1200 -->
      <g transform="translate(24.81 98.68136) scale(0.1 -0.1)">
       <use xlink:href="#DejaVuSans-31"/>
       <use xlink:href="#DejaVuSans-32" transform="translate(63.623047 0)"/>
       <use xlink:href="#DejaVuSans-30" transform="translate(127.246094 0)"/>
       <use xlink:href="#DejaVuSans-30" transform="translate(190.869141 0)"/>
      </g>
     </g>
    </g>
    <g id="ytick_8">
     <g id="line2d_16">
      <g>
       <use xlink:href="#m156237a3fb" x="57.26" y="69.689165" style="stroke: #000000; stroke-width: 0.8"/>
      </g>
     </g>
     <g id="text_17">
      <!-- 1400 -->
      <g transform="translate(24.81 73.488384) scale(0.1 -0.1)">
       <use xlink:href="#DejaVuSans-31"/>
       <use xlink:href="#DejaVuSans-34" transform="translate(63.623047 0)"/>
       <use xlink:href="#DejaVuSans-30" transform="translate(127.246094 0)"/>
       <use xlink:href="#DejaVuSans-30" transform="translate(190.869141 0)"/>
      </g>
     </g>
    </g>
    <g id="ytick_9">
     <g id="line2d_17">
      <g>
       <use xlink:href="#m156237a3fb" x="57.26" y="44.496189" style="stroke: #000000; stroke-width: 0.8"/>
      </g>
     </g>
     <g id="text_18">
      <!-- 1600 -->
      <g transform="translate(24.81 48.295408) scale(0.1 -0.1)">
       <use xlink:href="#DejaVuSans-31"/>
       <use xlink:href="#DejaVuSans-36" transform="translate(63.623047 0)"/>
       <use xlink:href="#DejaVuSans-30" transform="translate(127.246094 0)"/>
       <use xlink:href="#DejaVuSans-30" transform="translate(190.869141 0)"/>
      </g>
     </g>
    </g>
    <g id="text_19">
     <!-- Частота -->
     <g transform="translate(18.730312 157.649844) rotate(-90) scale(0.1 -0.1)">
      <defs>
       <path id="DejaVuSans-427" d="M 3125 0 
L 3125 1913 
L 1822 1913 
Q 1241 1913 894 2277 
Q 547 2641 547 3384 
L 547 4666 
L 1175 4666 
L 1175 3434 
Q 1175 2938 1369 2691 
Q 1563 2444 1950 2444 
L 3125 2444 
L 3125 4666 
L 3759 4666 
L 3759 0 
L 3125 0 
z
" transform="scale(0.015625)"/>
       <path id="DejaVuSans-441" d="M 3122 3366 
L 3122 2828 
Q 2878 2963 2633 3030 
Q 2388 3097 2138 3097 
Q 1578 3097 1268 2742 
Q 959 2388 959 1747 
Q 959 1106 1268 751 
Q 1578 397 2138 397 
Q 2388 397 2633 464 
Q 2878 531 3122 666 
L 3122 134 
Q 2881 22 2623 -34 
Q 2366 -91 2075 -91 
Q 1284 -91 818 406 
Q 353 903 353 1747 
Q 353 2603 823 3093 
Q 1294 3584 2113 3584 
Q 2378 3584 2631 3529 
Q 2884 3475 3122 3366 
z
" transform="scale(0.015625)"/>
      </defs>
      <use xlink:href="#DejaVuSans-427"/>
      <use xlink:href="#DejaVuSans-430" transform="translate(68.554688 0)"/>
      <use xlink:href="#DejaVuSans-441" transform="translate(129.833984 0)"/>
      <use xlink:href="#DejaVuSans-442" transform="translate(184.814453 0)"/>
      <use xlink:href="#DejaVuSans-43e" transform="translate(243.066406 0)"/>
      <use xlink:href="#DejaVuSans-442" transform="translate(304.248047 0)"/>
      <use xlink:href="#DejaVuSans-430" transform="translate(362.5 0)"/>
     </g>
    </g>
   </g>
   <g id="line2d_18">
    <path d="M 148.02653 246.04 
L 148.02653 26.88 
" clip-path="url(#p14f3eb440c)" style="fill: none; stroke-dasharray: 5.55,2.4; stroke-dashoffset: 0; stroke: #ff0000; stroke-width: 1.5"/>
   </g>
   <g id="patch_33">
    <path d="M 57.26 246.04 
L 57.26 26.88 
" style="fill: none; stroke: #000000; stroke-width: 0.8; stroke-linejoin: miter; stroke-linecap: square"/>
   </g>
   <g id="patch_34">
    <path d="M 350.621921 246.04 
L 350.621921 26.88 
" style="fill: none; stroke: #000000; stroke-width: 0.8; stroke-linejoin: miter; stroke-linecap: square"/>
   </g>
   <g id="patch_35">
    <path d="M 57.26 246.04 
L 350.621921 246.04 
" style="fill: none; stroke: #000000; stroke-width: 0.8; stroke-linejoin: miter; stroke-linecap: square"/>
   </g>
   <g id="patch_36">
    <path d="M 57.26 26.88 
L 350.621921 26.88 
" style="fill: none; stroke: #000000; stroke-width: 0.8; stroke-linejoin: miter; stroke-linecap: square"/>
   </g>
   <g id="text_20">
    <!-- CountVectorizer (базовый) -->
    <g transform="translate(123.028148 20.88) scale(0.12 -0.12)">
     <defs>
      <path id="DejaVuSans-43" d="M 4122 4306 
L 4122 3641 
Q 3803 3938 3442 4084 
Q 3081 4231 2675 4231 
Q 1875 4231 1450 3742 
Q 1025 3253 1025 2328 
Q 1025 1406 1450 917 
Q 1875 428 2675 428 
Q 3081 428 3442 575 
Q 3803 722 4122 1019 
L 4122 359 
Q 3791 134 3420 21 
Q 3050 -91 2638 -91 
Q 1578 -91 968 557 
Q 359 1206 359 2328 
Q 359 3453 968 4101 
Q 1578 4750 2638 4750 
Q 3056 4750 3426 4639 
Q 3797 4528 4122 4306 
z
" transform="scale(0.015625)"/>
      <path id="DejaVuSans-6f" d="M 1959 3097 
Q 1497 3097 1228 2736 
Q 959 2375 959 1747 
Q 959 1119 1226 758 
Q 1494 397 1959 397 
Q 2419 397 2687 759 
Q 2956 1122 2956 1747 
Q 2956 2369 2687 2733 
Q 2419 3097 1959 3097 
z
M 1959 3584 
Q 2709 3584 3137 3096 
Q 3566 2609 3566 1747 
Q 3566 888 3137 398 
Q 2709 -91 1959 -91 
Q 1206 -91 779 398 
Q 353 888 353 1747 
Q 353 2609 779 3096 
Q 1206 3584 1959 3584 
z
" transform="scale(0.015625)"/>
      <path id="DejaVuSans-75" d="M 544 1381 
L 544 3500 
L 1119 3500 
L 1119 1403 
Q 1119 906 1312 657 
Q 1506 409 1894 409 
Q 2359 409 2629 706 
Q 2900 1003 2900 1516 
L 2900 3500 
L 3475 3500 
L 3475 0 
L 2900 0 
L 2900 538 
Q 2691 219 2414 64 
Q 2138 -91 1772 -91 
Q 1169 -91 856 284 
Q 544 659 544 1381 
z
M 1991 3584 
L 1991 3584 
z
" transform="scale(0.015625)"/>
      <path id="DejaVuSans-6e" d="M 3513 2113 
L 3513 0 
L 2938 0 
L 2938 2094 
Q 2938 2591 2744 2837 
Q 2550 3084 2163 3084 
Q 1697 3084 1428 2787 
Q 1159 2491 1159 1978 
L 1159 0 
L 581 0 
L 581 3500 
L 1159 3500 
L 1159 2956 
Q 1366 3272 1645 3428 
Q 1925 3584 2291 3584 
Q 2894 3584 3203 3211 
Q 3513 2838 3513 2113 
z
" transform="scale(0.015625)"/>
      <path id="DejaVuSans-74" d="M 1172 4494 
L 1172 3500 
L 2356 3500 
L 2356 3053 
L 1172 3053 
L 1172 1153 
Q 1172 725 1289 603 
Q 1406 481 1766 481 
L 2356 481 
L 2356 0 
L 1766 0 
Q 1100 0 847 248 
Q 594 497 594 1153 
L 594 3053 
L 172 3053 
L 172 3500 
L 594 3500 
L 594 4494 
L 1172 4494 
z
" transform="scale(0.015625)"/>
      <path id="DejaVuSans-56" d="M 1831 0 
L 50 4666 
L 709 4666 
L 2188 738 
L 3669 4666 
L 4325 4666 
L 2547 0 
L 1831 0 
z
" transform="scale(0.015625)"/>
      <path id="DejaVuSans-65" d="M 3597 1894 
L 3597 1613 
L 953 1613 
Q 991 1019 1311 708 
Q 1631 397 2203 397 
Q 2534 397 2845 478 
Q 3156 559 3463 722 
L 3463 178 
Q 3153 47 2828 -22 
Q 2503 -91 2169 -91 
Q 1331 -91 842 396 
Q 353 884 353 1716 
Q 353 2575 817 3079 
Q 1281 3584 2069 3584 
Q 2775 3584 3186 3129 
Q 3597 2675 3597 1894 
z
M 3022 2063 
Q 3016 2534 2758 2815 
Q 2500 3097 2075 3097 
Q 1594 3097 1305 2825 
Q 1016 2553 972 2059 
L 3022 2063 
z
" transform="scale(0.015625)"/>
      <path id="DejaVuSans-63" d="M 3122 3366 
L 3122 2828 
Q 2878 2963 2633 3030 
Q 2388 3097 2138 3097 
Q 1578 3097 1268 2742 
Q 959 2388 959 1747 
Q 959 1106 1268 751 
Q 1578 397 2138 397 
Q 2388 397 2633 464 
Q 2878 531 3122 666 
L 3122 134 
Q 2881 22 2623 -34 
Q 2366 -91 2075 -91 
Q 1284 -91 818 406 
Q 353 903 353 1747 
Q 353 2603 823 3093 
Q 1294 3584 2113 3584 
Q 2378 3584 2631 3529 
Q 2884 3475 3122 3366 
z
" transform="scale(0.015625)"/>
      <path id="DejaVuSans-72" d="M 2631 2963 
Q 2534 3019 2420 3045 
Q 2306 3072 2169 3072 
Q 1681 3072 1420 2755 
Q 1159 2438 1159 1844 
L 1159 0 
L 581 0 
L 581 3500 
L 1159 3500 
L 1159 2956 
Q 1341 3275 1631 3429 
Q 1922 3584 2338 3584 
Q 2397 3584 2469 3576 
Q 2541 3569 2628 3553 
L 2631 2963 
z
" transform="scale(0.015625)"/>
      <path id="DejaVuSans-69" d="M 603 3500 
L 1178 3500 
L 1178 0 
L 603 0 
L 603 3500 
z
M 603 4863 
L 1178 4863 
L 1178 4134 
L 603 4134 
L 603 4863 
z
" transform="scale(0.015625)"/>
      <path id="DejaVuSans-7a" d="M 353 3500 
L 3084 3500 
L 3084 2975 
L 922 459 
L 3084 459 
L 3084 0 
L 275 0 
L 275 525 
L 2438 3041 
L 353 3041 
L 353 3500 
z
" transform="scale(0.015625)"/>
      <path id="DejaVuSans-28" d="M 1984 4856 
Q 1566 4138 1362 3434 
Q 1159 2731 1159 2009 
Q 1159 1288 1364 580 
Q 1569 -128 1984 -844 
L 1484 -844 
Q 1016 -109 783 600 
Q 550 1309 550 2009 
Q 550 2706 781 3412 
Q 1013 4119 1484 4856 
L 1984 4856 
z
" transform="scale(0.015625)"/>
      <path id="DejaVuSans-431" d="M 1991 3584 
Q 2741 3584 3169 3096 
Q 3597 2609 3597 1747 
Q 3597 888 3169 398 
Q 2741 -91 1991 -91 
Q 1238 -91 822 384 
Q 406 859 384 1747 
L 366 2463 
Q 350 2834 350 2963 
Q 350 3463 531 3831 
Q 816 4409 1308 4659 
Q 1800 4909 2625 4916 
Q 3006 4919 3175 4972 
L 3334 4516 
Q 3181 4453 3041 4450 
L 2259 4397 
Q 1866 4369 1628 4231 
Q 1006 3866 947 3388 
L 925 3213 
Q 1331 3584 1991 3584 
z
M 1991 3097 
Q 1528 3097 1259 2736 
Q 991 2375 991 1747 
Q 991 1119 1258 758 
Q 1525 397 1991 397 
Q 2450 397 2719 759 
Q 2988 1122 2988 1747 
Q 2988 2369 2719 2733 
Q 2450 3097 1991 3097 
z
" transform="scale(0.015625)"/>
      <path id="DejaVuSans-44b" d="M 3907 3500 
L 4482 3500 
L 4482 0 
L 3907 0 
L 3907 3500 
z
M 4195 3584 
L 4195 3584 
z
M 2781 1038 
Q 2781 1319 2576 1466 
Q 2372 1613 1978 1613 
L 1159 1613 
L 1159 459 
L 1978 459 
Q 2372 459 2576 607 
Q 2781 756 2781 1038 
z
M 581 3500 
L 1159 3500 
L 1159 2072 
L 2003 2072 
Q 2672 2072 3033 1817 
Q 3394 1563 3394 1038 
Q 3394 513 3033 256 
Q 2672 0 2003 0 
L 581 0 
L 581 3500 
z
" transform="scale(0.015625)"/>
      <path id="DejaVuSans-439" d="M 3578 3500 
L 3578 0 
L 3006 0 
L 3006 2809 
L 1319 0 
L 581 0 
L 581 3500 
L 1153 3500 
L 1153 697 
L 2838 3500 
L 3578 3500 
z
M 1102 4833 
L 1471 4833 
Q 1505 4599 1656 4481 
Q 1808 4364 2080 4364 
Q 2349 4364 2499 4480 
Q 2649 4596 2689 4833 
L 3058 4833 
Q 3027 4386 2780 4161 
Q 2533 3936 2080 3936 
Q 1627 3936 1380 4161 
Q 1133 4386 1102 4833 
z
" transform="scale(0.015625)"/>
      <path id="DejaVuSans-29" d="M 513 4856 
L 1013 4856 
Q 1481 4119 1714 3412 
Q 1947 2706 1947 2009 
Q 1947 1309 1714 600 
Q 1481 -109 1013 -844 
L 513 -844 
Q 928 -128 1133 580 
Q 1338 1288 1338 2009 
Q 1338 2731 1133 3434 
Q 928 4138 513 4856 
z
" transform="scale(0.015625)"/>
     </defs>
     <use xlink:href="#DejaVuSans-43"/>
     <use xlink:href="#DejaVuSans-6f" transform="translate(69.824219 0)"/>
     <use xlink:href="#DejaVuSans-75" transform="translate(131.005859 0)"/>
     <use xlink:href="#DejaVuSans-6e" transform="translate(194.384766 0)"/>
     <use xlink:href="#DejaVuSans-74" transform="translate(257.763672 0)"/>
     <use xlink:href="#DejaVuSans-56" transform="translate(296.972656 0)"/>
     <use xlink:href="#DejaVuSans-65" transform="translate(357.630859 0)"/>
     <use xlink:href="#DejaVuSans-63" transform="translate(419.154297 0)"/>
     <use xlink:href="#DejaVuSans-74" transform="translate(474.134766 0)"/>
     <use xlink:href="#DejaVuSans-6f" transform="translate(513.34375 0)"/>
     <use xlink:href="#DejaVuSans-72" transform="translate(574.525391 0)"/>
     <use xlink:href="#DejaVuSans-69" transform="translate(615.638672 0)"/>
     <use xlink:href="#DejaVuSans-7a" transform="translate(643.421875 0)"/>
     <use xlink:href="#DejaVuSans-65" transform="translate(695.912109 0)"/>
     <use xlink:href="#DejaVuSans-72" transform="translate(757.435547 0)"/>
     <use xlink:href="#DejaVuSans-20" transform="translate(798.548828 0)"/>
     <use xlink:href="#DejaVuSans-28" transform="translate(830.335938 0)"/>
     <use xlink:href="#DejaVuSans-431" transform="translate(869.349609 0)"/>
     <use xlink:href="#DejaVuSans-430" transform="translate(931.019531 0)"/>
     <use xlink:href="#DejaVuSans-437" transform="translate(992.298828 0)"/>
     <use xlink:href="#DejaVuSans-43e" transform="translate(1045.472656 0)"/>
     <use xlink:href="#DejaVuSans-432" transform="translate(1106.654297 0)"/>
     <use xlink:href="#DejaVuSans-44b" transform="translate(1165.589844 0)"/>
     <use xlink:href="#DejaVuSans-439" transform="translate(1244.544922 0)"/>
     <use xlink:href="#DejaVuSans-29" transform="translate(1309.535156 0)"/>
    </g>
   </g>
   <g id="legend_1">
    <g id="patch_37">
     <path d="M 237.567234 49.558125 
L 343.621921 49.558125 
Q 345.621921 49.558125 345.621921 47.558125 
L 345.621921 33.88 
Q 345.621921 31.88 343.621921 31.88 
L 237.567234 31.88 
Q 235.567234 31.88 235.567234 33.88 
L 235.567234 47.558125 
Q 235.567234 49.558125 237.567234 49.558125 
z
" style="fill: #ffffff; opacity: 0.8; stroke: #cccccc; stroke-linejoin: miter"/>
    </g>
    <g id="line2d_19">
     <path d="M 239.567234 39.978437 
L 249.567234 39.978437 
L 259.567234 39.978437 
" style="fill: none; stroke-dasharray: 5.55,2.4; stroke-dashoffset: 0; stroke: #ff0000; stroke-width: 1.5"/>
    </g>
    <g id="text_21">
     <!-- Среднее: 98.0 -->
     <g transform="translate(267.567234 43.478437) scale(0.1 -0.1)">
      <defs>
       <path id="DejaVuSans-421" d="M 4122 4306 
L 4122 3641 
Q 3803 3938 3442 4084 
Q 3081 4231 2675 4231 
Q 1875 4231 1450 3742 
Q 1025 3253 1025 2328 
Q 1025 1406 1450 917 
Q 1875 428 2675 428 
Q 3081 428 3442 575 
Q 3803 722 4122 1019 
L 4122 359 
Q 3791 134 3420 21 
Q 3050 -91 2638 -91 
Q 1578 -91 968 557 
Q 359 1206 359 2328 
Q 359 3453 968 4101 
Q 1578 4750 2638 4750 
Q 3056 4750 3426 4639 
Q 3797 4528 4122 4306 
z
" transform="scale(0.015625)"/>
       <path id="DejaVuSans-3a" d="M 750 794 
L 1409 794 
L 1409 0 
L 750 0 
L 750 794 
z
M 750 3309 
L 1409 3309 
L 1409 2516 
L 750 2516 
L 750 3309 
z
" transform="scale(0.015625)"/>
       <path id="DejaVuSans-39" d="M 703 97 
L 703 672 
Q 941 559 1184 500 
Q 1428 441 1663 441 
Q 2288 441 2617 861 
Q 2947 1281 2994 2138 
Q 2813 1869 2534 1725 
Q 2256 1581 1919 1581 
Q 1219 1581 811 2004 
Q 403 2428 403 3163 
Q 403 3881 828 4315 
Q 1253 4750 1959 4750 
Q 2769 4750 3195 4129 
Q 3622 3509 3622 2328 
Q 3622 1225 3098 567 
Q 2575 -91 1691 -91 
Q 1453 -91 1209 -44 
Q 966 3 703 97 
z
M 1959 2075 
Q 2384 2075 2632 2365 
Q 2881 2656 2881 3163 
Q 2881 3666 2632 3958 
Q 2384 4250 1959 4250 
Q 1534 4250 1286 3958 
Q 1038 3666 1038 3163 
Q 1038 2656 1286 2365 
Q 1534 2075 1959 2075 
z
" transform="scale(0.015625)"/>
       <path id="DejaVuSans-2e" d="M 684 794 
L 1344 794 
L 1344 0 
L 684 0 
L 684 794 
z
" transform="scale(0.015625)"/>
      </defs>
      <use xlink:href="#DejaVuSans-421"/>
      <use xlink:href="#DejaVuSans-440" transform="translate(69.824219 0)"/>
      <use xlink:href="#DejaVuSans-435" transform="translate(133.300781 0)"/>
      <use xlink:href="#DejaVuSans-434" transform="translate(194.824219 0)"/>
      <use xlink:href="#DejaVuSans-43d" transform="translate(263.964844 0)"/>
      <use xlink:href="#DejaVuSans-435" transform="translate(329.345703 0)"/>
      <use xlink:href="#DejaVuSans-435" transform="translate(390.869141 0)"/>
      <use xlink:href="#DejaVuSans-3a" transform="translate(452.392578 0)"/>
      <use xlink:href="#DejaVuSans-20" transform="translate(486.083984 0)"/>
      <use xlink:href="#DejaVuSans-39" transform="translate(517.871094 0)"/>
      <use xlink:href="#DejaVuSans-38" transform="translate(581.494141 0)"/>
      <use xlink:href="#DejaVuSans-2e" transform="translate(645.117188 0)"/>
      <use xlink:href="#DejaVuSans-30" transform="translate(676.904297 0)"/>
     </g>
    </g>
   </g>
  </g>
  <g id="axes_2">
   <g id="patch_38">
    <path d="M 416.102836 246.04 
L 709.464757 246.04 
L 709.464757 26.88 
L 416.102836 26.88 
z
" style="fill: #ffffff"/>
   </g>
   <g id="patch_39">
    <path d="M 429.437469 246.04 
L 438.327224 246.04 
L 438.327224 242.216052 
L 429.437469 242.216052 
z
" clip-path="url(#p1e5dd62a21)" style="fill: #1f77b4; opacity: 0.7; stroke: #000000; stroke-linejoin: miter"/>
   </g>
   <g id="patch_40">
    <path d="M 438.327224 246.04 
L 447.216979 246.04 
L 447.216979 244.287357 
L 438.327224 244.287357 
z
" clip-path="url(#p1e5dd62a21)" style="fill: #1f77b4; opacity: 0.7; stroke: #000000; stroke-linejoin: miter"/>
   </g>
   <g id="patch_41">
    <path d="M 447.216979 246.04 
L 456.106734 246.04 
L 456.106734 237.117455 
L 447.216979 237.117455 
z
" clip-path="url(#p1e5dd62a21)" style="fill: #1f77b4; opacity: 0.7; stroke: #000000; stroke-linejoin: miter"/>
   </g>
   <g id="patch_42">
    <path d="M 456.106734 246.04 
L 464.99649 246.04 
L 464.99649 218.475711 
L 456.106734 218.475711 
z
" clip-path="url(#p1e5dd62a21)" style="fill: #1f77b4; opacity: 0.7; stroke: #000000; stroke-linejoin: miter"/>
   </g>
   <g id="patch_43">
    <path d="M 464.99649 246.04 
L 473.886245 246.04 
L 473.886245 188.521454 
L 464.99649 188.521454 
z
" clip-path="url(#p1e5dd62a21)" style="fill: #1f77b4; opacity: 0.7; stroke: #000000; stroke-linejoin: miter"/>
   </g>
   <g id="patch_44">
    <path d="M 473.886245 246.04 
L 482.776 246.04 
L 482.776 107.103235 
L 473.886245 107.103235 
z
" clip-path="url(#p1e5dd62a21)" style="fill: #1f77b4; opacity: 0.7; stroke: #000000; stroke-linejoin: miter"/>
   </g>
   <g id="patch_45">
    <path d="M 482.776 246.04 
L 491.665755 246.04 
L 491.665755 68.704427 
L 482.776 68.704427 
z
" clip-path="url(#p1e5dd62a21)" style="fill: #1f77b4; opacity: 0.7; stroke: #000000; stroke-linejoin: miter"/>
   </g>
   <g id="patch_46">
    <path d="M 491.665755 246.04 
L 500.55551 246.04 
L 500.55551 37.31619 
L 491.665755 37.31619 
z
" clip-path="url(#p1e5dd62a21)" style="fill: #1f77b4; opacity: 0.7; stroke: #000000; stroke-linejoin: miter"/>
   </g>
   <g id="patch_47">
    <path d="M 500.55551 246.04 
L 509.445266 246.04 
L 509.445266 55.001948 
L 500.55551 55.001948 
z
" clip-path="url(#p1e5dd62a21)" style="fill: #1f77b4; opacity: 0.7; stroke: #000000; stroke-linejoin: miter"/>
   </g>
   <g id="patch_48">
    <path d="M 509.445266 246.04 
L 518.335021 246.04 
L 518.335021 44.486092 
L 509.445266 44.486092 
z
" clip-path="url(#p1e5dd62a21)" style="fill: #1f77b4; opacity: 0.7; stroke: #000000; stroke-linejoin: miter"/>
   </g>
   <g id="patch_49">
    <path d="M 518.335021 246.04 
L 527.224776 246.04 
L 527.224776 82.247575 
L 518.335021 82.247575 
z
" clip-path="url(#p1e5dd62a21)" style="fill: #1f77b4; opacity: 0.7; stroke: #000000; stroke-linejoin: miter"/>
   </g>
   <g id="patch_50">
    <path d="M 527.224776 246.04 
L 536.114531 246.04 
L 536.114531 115.547786 
L 527.224776 115.547786 
z
" clip-path="url(#p1e5dd62a21)" style="fill: #1f77b4; opacity: 0.7; stroke: #000000; stroke-linejoin: miter"/>
   </g>
   <g id="patch_51">
    <path d="M 536.114531 246.04 
L 545.004286 246.04 
L 545.004286 164.143788 
L 536.114531 164.143788 
z
" clip-path="url(#p1e5dd62a21)" style="fill: #1f77b4; opacity: 0.7; stroke: #000000; stroke-linejoin: miter"/>
   </g>
   <g id="patch_52">
    <path d="M 545.004286 246.04 
L 553.894042 246.04 
L 553.894042 172.269676 
L 545.004286 172.269676 
z
" clip-path="url(#p1e5dd62a21)" style="fill: #1f77b4; opacity: 0.7; stroke: #000000; stroke-linejoin: miter"/>
   </g>
   <g id="patch_53">
    <path d="M 553.894042 246.04 
L 562.783797 246.04 
L 562.783797 197.60333 
L 553.894042 197.60333 
z
" clip-path="url(#p1e5dd62a21)" style="fill: #1f77b4; opacity: 0.7; stroke: #000000; stroke-linejoin: miter"/>
   </g>
   <g id="patch_54">
    <path d="M 562.783797 246.04 
L 571.673552 246.04 
L 571.673552 212.102465 
L 562.783797 212.102465 
z
" clip-path="url(#p1e5dd62a21)" style="fill: #1f77b4; opacity: 0.7; stroke: #000000; stroke-linejoin: miter"/>
   </g>
   <g id="patch_55">
    <path d="M 571.673552 246.04 
L 580.563307 246.04 
L 580.563307 227.716917 
L 571.673552 227.716917 
z
" clip-path="url(#p1e5dd62a21)" style="fill: #1f77b4; opacity: 0.7; stroke: #000000; stroke-linejoin: miter"/>
   </g>
   <g id="patch_56">
    <path d="M 580.563307 246.04 
L 589.453062 246.04 
L 589.453062 237.914111 
L 580.563307 237.914111 
z
" clip-path="url(#p1e5dd62a21)" style="fill: #1f77b4; opacity: 0.7; stroke: #000000; stroke-linejoin: miter"/>
   </g>
   <g id="patch_57">
    <path d="M 589.453062 246.04 
L 598.342817 246.04 
L 598.342817 237.276787 
L 589.453062 237.276787 
z
" clip-path="url(#p1e5dd62a21)" style="fill: #1f77b4; opacity: 0.7; stroke: #000000; stroke-linejoin: miter"/>
   </g>
   <g id="patch_58">
    <path d="M 598.342817 246.04 
L 607.232573 246.04 
L 607.232573 242.534715 
L 598.342817 242.534715 
z
" clip-path="url(#p1e5dd62a21)" style="fill: #1f77b4; opacity: 0.7; stroke: #000000; stroke-linejoin: miter"/>
   </g>
   <g id="patch_59">
    <path d="M 607.232573 246.04 
L 616.122328 246.04 
L 616.122328 244.446688 
L 607.232573 244.446688 
z
" clip-path="url(#p1e5dd62a21)" style="fill: #1f77b4; opacity: 0.7; stroke: #000000; stroke-linejoin: miter"/>
   </g>
   <g id="patch_60">
    <path d="M 616.122328 246.04 
L 625.012083 246.04 
L 625.012083 244.60602 
L 616.122328 244.60602 
z
" clip-path="url(#p1e5dd62a21)" style="fill: #1f77b4; opacity: 0.7; stroke: #000000; stroke-linejoin: miter"/>
   </g>
   <g id="patch_61">
    <path d="M 625.012083 246.04 
L 633.901838 246.04 
L 633.901838 245.402675 
L 625.012083 245.402675 
z
" clip-path="url(#p1e5dd62a21)" style="fill: #1f77b4; opacity: 0.7; stroke: #000000; stroke-linejoin: miter"/>
   </g>
   <g id="patch_62">
    <path d="M 633.901838 246.04 
L 642.791593 246.04 
L 642.791593 245.402675 
L 633.901838 245.402675 
z
" clip-path="url(#p1e5dd62a21)" style="fill: #1f77b4; opacity: 0.7; stroke: #000000; stroke-linejoin: miter"/>
   </g>
   <g id="patch_63">
    <path d="M 642.791593 246.04 
L 651.681349 246.04 
L 651.681349 245.880669 
L 642.791593 245.880669 
z
" clip-path="url(#p1e5dd62a21)" style="fill: #1f77b4; opacity: 0.7; stroke: #000000; stroke-linejoin: miter"/>
   </g>
   <g id="patch_64">
    <path d="M 651.681349 246.04 
L 660.571104 246.04 
L 660.571104 246.04 
L 651.681349 246.04 
z
" clip-path="url(#p1e5dd62a21)" style="fill: #1f77b4; opacity: 0.7; stroke: #000000; stroke-linejoin: miter"/>
   </g>
   <g id="patch_65">
    <path d="M 660.571104 246.04 
L 669.460859 246.04 
L 669.460859 245.880669 
L 660.571104 245.880669 
z
" clip-path="url(#p1e5dd62a21)" style="fill: #1f77b4; opacity: 0.7; stroke: #000000; stroke-linejoin: miter"/>
   </g>
   <g id="patch_66">
    <path d="M 669.460859 246.04 
L 678.350614 246.04 
L 678.350614 245.721338 
L 669.460859 245.721338 
z
" clip-path="url(#p1e5dd62a21)" style="fill: #1f77b4; opacity: 0.7; stroke: #000000; stroke-linejoin: miter"/>
   </g>
   <g id="patch_67">
    <path d="M 678.350614 246.04 
L 687.240369 246.04 
L 687.240369 246.04 
L 678.350614 246.04 
z
" clip-path="url(#p1e5dd62a21)" style="fill: #1f77b4; opacity: 0.7; stroke: #000000; stroke-linejoin: miter"/>
   </g>
   <g id="patch_68">
    <path d="M 687.240369 246.04 
L 696.130125 246.04 
L 696.130125 245.880669 
L 687.240369 245.880669 
z
" clip-path="url(#p1e5dd62a21)" style="fill: #1f77b4; opacity: 0.7; stroke: #000000; stroke-linejoin: miter"/>
   </g>
   <g id="matplotlib.axis_3">
    <g id="xtick_9">
     <g id="line2d_20">
      <g>
       <use xlink:href="#mcfe17c1160" x="429.437469" y="246.04" style="stroke: #000000; stroke-width: 0.8"/>
      </g>
     </g>
     <g id="text_22">
      <!-- 0 -->
      <g transform="translate(426.256219 260.638438) scale(0.1 -0.1)">
       <use xlink:href="#DejaVuSans-30"/>
      </g>
     </g>
    </g>
    <g id="xtick_10">
     <g id="line2d_21">
      <g>
       <use xlink:href="#mcfe17c1160" x="467.97687" y="246.04" style="stroke: #000000; stroke-width: 0.8"/>
      </g>
     </g>
     <g id="text_23">
      <!-- 25 -->
      <g transform="translate(461.61437 260.638438) scale(0.1 -0.1)">
       <use xlink:href="#DejaVuSans-32"/>
       <use xlink:href="#DejaVuSans-35" transform="translate(63.623047 0)"/>
      </g>
     </g>
    </g>
    <g id="xtick_11">
     <g id="line2d_22">
      <g>
       <use xlink:href="#mcfe17c1160" x="506.516271" y="246.04" style="stroke: #000000; stroke-width: 0.8"/>
      </g>
     </g>
     <g id="text_24">
      <!-- 50 -->
      <g transform="translate(500.153771 260.638438) scale(0.1 -0.1)">
       <use xlink:href="#DejaVuSans-35"/>
       <use xlink:href="#DejaVuSans-30" transform="translate(63.623047 0)"/>
      </g>
     </g>
    </g>
    <g id="xtick_12">
     <g id="line2d_23">
      <g>
       <use xlink:href="#mcfe17c1160" x="545.055672" y="246.04" style="stroke: #000000; stroke-width: 0.8"/>
      </g>
     </g>
     <g id="text_25">
      <!-- 75 -->
      <g transform="translate(538.693172 260.638438) scale(0.1 -0.1)">
       <defs>
        <path id="DejaVuSans-37" d="M 525 4666 
L 3525 4666 
L 3525 4397 
L 1831 0 
L 1172 0 
L 2766 4134 
L 525 4134 
L 525 4666 
z
" transform="scale(0.015625)"/>
       </defs>
       <use xlink:href="#DejaVuSans-37"/>
       <use xlink:href="#DejaVuSans-35" transform="translate(63.623047 0)"/>
      </g>
     </g>
    </g>
    <g id="xtick_13">
     <g id="line2d_24">
      <g>
       <use xlink:href="#mcfe17c1160" x="583.595073" y="246.04" style="stroke: #000000; stroke-width: 0.8"/>
      </g>
     </g>
     <g id="text_26">
      <!-- 100 -->
      <g transform="translate(574.051323 260.638438) scale(0.1 -0.1)">
       <use xlink:href="#DejaVuSans-31"/>
       <use xlink:href="#DejaVuSans-30" transform="translate(63.623047 0)"/>
       <use xlink:href="#DejaVuSans-30" transform="translate(127.246094 0)"/>
      </g>
     </g>
    </g>
    <g id="xtick_14">
     <g id="line2d_25">
      <g>
       <use xlink:href="#mcfe17c1160" x="622.134474" y="246.04" style="stroke: #000000; stroke-width: 0.8"/>
      </g>
     </g>
     <g id="text_27">
      <!-- 125 -->
      <g transform="translate(612.590724 260.638438) scale(0.1 -0.1)">
       <use xlink:href="#DejaVuSans-31"/>
       <use xlink:href="#DejaVuSans-32" transform="translate(63.623047 0)"/>
       <use xlink:href="#DejaVuSans-35" transform="translate(127.246094 0)"/>
      </g>
     </g>
    </g>
    <g id="xtick_15">
     <g id="line2d_26">
      <g>
       <use xlink:href="#mcfe17c1160" x="660.673876" y="246.04" style="stroke: #000000; stroke-width: 0.8"/>
      </g>
     </g>
     <g id="text_28">
      <!-- 150 -->
      <g transform="translate(651.130126 260.638438) scale(0.1 -0.1)">
       <use xlink:href="#DejaVuSans-31"/>
       <use xlink:href="#DejaVuSans-35" transform="translate(63.623047 0)"/>
       <use xlink:href="#DejaVuSans-30" transform="translate(127.246094 0)"/>
      </g>
     </g>
    </g>
    <g id="xtick_16">
     <g id="line2d_27">
      <g>
       <use xlink:href="#mcfe17c1160" x="699.213277" y="246.04" style="stroke: #000000; stroke-width: 0.8"/>
      </g>
     </g>
     <g id="text_29">
      <!-- 175 -->
      <g transform="translate(689.669527 260.638438) scale(0.1 -0.1)">
       <use xlink:href="#DejaVuSans-31"/>
       <use xlink:href="#DejaVuSans-37" transform="translate(63.623047 0)"/>
       <use xlink:href="#DejaVuSans-35" transform="translate(127.246094 0)"/>
      </g>
     </g>
    </g>
    <g id="text_30">
     <!-- Признаков в документе -->
     <g transform="translate(499.85489 274.316562) scale(0.1 -0.1)">
      <use xlink:href="#DejaVuSans-41f"/>
      <use xlink:href="#DejaVuSans-440" transform="translate(75.195312 0)"/>
      <use xlink:href="#DejaVuSans-438" transform="translate(138.671875 0)"/>
      <use xlink:href="#DejaVuSans-437" transform="translate(203.662109 0)"/>
      <use xlink:href="#DejaVuSans-43d" transform="translate(256.835938 0)"/>
      <use xlink:href="#DejaVuSans-430" transform="translate(322.216797 0)"/>
      <use xlink:href="#DejaVuSans-43a" transform="translate(383.496094 0)"/>
      <use xlink:href="#DejaVuSans-43e" transform="translate(443.896484 0)"/>
      <use xlink:href="#DejaVuSans-432" transform="translate(505.078125 0)"/>
      <use xlink:href="#DejaVuSans-20" transform="translate(564.013672 0)"/>
      <use xlink:href="#DejaVuSans-432" transform="translate(595.800781 0)"/>
      <use xlink:href="#DejaVuSans-20" transform="translate(654.736328 0)"/>
      <use xlink:href="#DejaVuSans-434" transform="translate(686.523438 0)"/>
      <use xlink:href="#DejaVuSans-43e" transform="translate(755.664062 0)"/>
      <use xlink:href="#DejaVuSans-43a" transform="translate(816.845703 0)"/>
      <use xlink:href="#DejaVuSans-443" transform="translate(877.246094 0)"/>
      <use xlink:href="#DejaVuSans-43c" transform="translate(936.425781 0)"/>
      <use xlink:href="#DejaVuSans-435" transform="translate(1011.865234 0)"/>
      <use xlink:href="#DejaVuSans-43d" transform="translate(1073.388672 0)"/>
      <use xlink:href="#DejaVuSans-442" transform="translate(1138.769531 0)"/>
      <use xlink:href="#DejaVuSans-435" transform="translate(1197.021484 0)"/>
     </g>
    </g>
   </g>
   <g id="matplotlib.axis_4">
    <g id="ytick_10">
     <g id="line2d_28">
      <g>
       <use xlink:href="#m156237a3fb" x="416.102836" y="246.04" style="stroke: #000000; stroke-width: 0.8"/>
      </g>
     </g>
     <g id="text_31">
      <!-- 0 -->
      <g transform="translate(402.740336 249.839219) scale(0.1 -0.1)">
       <use xlink:href="#DejaVuSans-30"/>
      </g>
     </g>
    </g>
    <g id="ytick_11">
     <g id="line2d_29">
      <g>
       <use xlink:href="#m156237a3fb" x="416.102836" y="214.17377" style="stroke: #000000; stroke-width: 0.8"/>
      </g>
     </g>
     <g id="text_32">
      <!-- 200 -->
      <g transform="translate(390.015336 217.972988) scale(0.1 -0.1)">
       <use xlink:href="#DejaVuSans-32"/>
       <use xlink:href="#DejaVuSans-30" transform="translate(63.623047 0)"/>
       <use xlink:href="#DejaVuSans-30" transform="translate(127.246094 0)"/>
      </g>
     </g>
    </g>
    <g id="ytick_12">
     <g id="line2d_30">
      <g>
       <use xlink:href="#m156237a3fb" x="416.102836" y="182.307539" style="stroke: #000000; stroke-width: 0.8"/>
      </g>
     </g>
     <g id="text_33">
      <!-- 400 -->
      <g transform="translate(390.015336 186.106758) scale(0.1 -0.1)">
       <use xlink:href="#DejaVuSans-34"/>
       <use xlink:href="#DejaVuSans-30" transform="translate(63.623047 0)"/>
       <use xlink:href="#DejaVuSans-30" transform="translate(127.246094 0)"/>
      </g>
     </g>
    </g>
    <g id="ytick_13">
     <g id="line2d_31">
      <g>
       <use xlink:href="#m156237a3fb" x="416.102836" y="150.441309" style="stroke: #000000; stroke-width: 0.8"/>
      </g>
     </g>
     <g id="text_34">
      <!-- 600 -->
      <g transform="translate(390.015336 154.240527) scale(0.1 -0.1)">
       <use xlink:href="#DejaVuSans-36"/>
       <use xlink:href="#DejaVuSans-30" transform="translate(63.623047 0)"/>
       <use xlink:href="#DejaVuSans-30" transform="translate(127.246094 0)"/>
      </g>
     </g>
    </g>
    <g id="ytick_14">
     <g id="line2d_32">
      <g>
       <use xlink:href="#m156237a3fb" x="416.102836" y="118.575078" style="stroke: #000000; stroke-width: 0.8"/>
      </g>
     </g>
     <g id="text_35">
      <!-- 800 -->
      <g transform="translate(390.015336 122.374297) scale(0.1 -0.1)">
       <use xlink:href="#DejaVuSans-38"/>
       <use xlink:href="#DejaVuSans-30" transform="translate(63.623047 0)"/>
       <use xlink:href="#DejaVuSans-30" transform="translate(127.246094 0)"/>
      </g>
     </g>
    </g>
    <g id="ytick_15">
     <g id="line2d_33">
      <g>
       <use xlink:href="#m156237a3fb" x="416.102836" y="86.708848" style="stroke: #000000; stroke-width: 0.8"/>
      </g>
     </g>
     <g id="text_36">
      <!-- 1000 -->
      <g transform="translate(383.652836 90.508066) scale(0.1 -0.1)">
       <use xlink:href="#DejaVuSans-31"/>
       <use xlink:href="#DejaVuSans-30" transform="translate(63.623047 0)"/>
       <use xlink:href="#DejaVuSans-30" transform="translate(127.246094 0)"/>
       <use xlink:href="#DejaVuSans-30" transform="translate(190.869141 0)"/>
      </g>
     </g>
    </g>
    <g id="ytick_16">
     <g id="line2d_34">
      <g>
       <use xlink:href="#m156237a3fb" x="416.102836" y="54.842617" style="stroke: #000000; stroke-width: 0.8"/>
      </g>
     </g>
     <g id="text_37">
      <!-- 1200 -->
      <g transform="translate(383.652836 58.641836) scale(0.1 -0.1)">
       <use xlink:href="#DejaVuSans-31"/>
       <use xlink:href="#DejaVuSans-32" transform="translate(63.623047 0)"/>
       <use xlink:href="#DejaVuSans-30" transform="translate(127.246094 0)"/>
       <use xlink:href="#DejaVuSans-30" transform="translate(190.869141 0)"/>
      </g>
     </g>
    </g>
    <g id="text_38">
     <!-- Частота -->
     <g transform="translate(377.573148 157.649844) rotate(-90) scale(0.1 -0.1)">
      <use xlink:href="#DejaVuSans-427"/>
      <use xlink:href="#DejaVuSans-430" transform="translate(68.554688 0)"/>
      <use xlink:href="#DejaVuSans-441" transform="translate(129.833984 0)"/>
      <use xlink:href="#DejaVuSans-442" transform="translate(184.814453 0)"/>
      <use xlink:href="#DejaVuSans-43e" transform="translate(243.066406 0)"/>
      <use xlink:href="#DejaVuSans-442" transform="translate(304.248047 0)"/>
      <use xlink:href="#DejaVuSans-430" transform="translate(362.5 0)"/>
     </g>
    </g>
   </g>
   <g id="line2d_35">
    <path d="M 511.184626 246.04 
L 511.184626 26.88 
" clip-path="url(#p1e5dd62a21)" style="fill: none; stroke-dasharray: 5.55,2.4; stroke-dashoffset: 0; stroke: #ff0000; stroke-width: 1.5"/>
   </g>
   <g id="patch_69">
    <path d="M 416.102836 246.04 
L 416.102836 26.88 
" style="fill: none; stroke: #000000; stroke-width: 0.8; stroke-linejoin: miter; stroke-linecap: square"/>
   </g>
   <g id="patch_70">
    <path d="M 709.464757 246.04 
L 709.464757 26.88 
" style="fill: none; stroke: #000000; stroke-width: 0.8; stroke-linejoin: miter; stroke-linecap: square"/>
   </g>
   <g id="patch_71">
    <path d="M 416.102836 246.04 
L 709.464757 246.04 
" style="fill: none; stroke: #000000; stroke-width: 0.8; stroke-linejoin: miter; stroke-linecap: square"/>
   </g>
   <g id="patch_72">
    <path d="M 416.102836 26.88 
L 709.464757 26.88 
" style="fill: none; stroke: #000000; stroke-width: 0.8; stroke-linejoin: miter; stroke-linecap: square"/>
   </g>
   <g id="text_39">
    <!-- CountVectorizer (с параметрами) -->
    <g transform="translate(460.366609 20.88) scale(0.12 -0.12)">
     <defs>
      <path id="DejaVuSans-43f" d="M 3603 3500 
L 3603 0 
L 3025 0 
L 3025 3041 
L 1159 3041 
L 1159 0 
L 581 0 
L 581 3500 
L 3603 3500 
z
" transform="scale(0.015625)"/>
     </defs>
     <use xlink:href="#DejaVuSans-43"/>
     <use xlink:href="#DejaVuSans-6f" transform="translate(69.824219 0)"/>
     <use xlink:href="#DejaVuSans-75" transform="translate(131.005859 0)"/>
     <use xlink:href="#DejaVuSans-6e" transform="translate(194.384766 0)"/>
     <use xlink:href="#DejaVuSans-74" transform="translate(257.763672 0)"/>
     <use xlink:href="#DejaVuSans-56" transform="translate(296.972656 0)"/>
     <use xlink:href="#DejaVuSans-65" transform="translate(357.630859 0)"/>
     <use xlink:href="#DejaVuSans-63" transform="translate(419.154297 0)"/>
     <use xlink:href="#DejaVuSans-74" transform="translate(474.134766 0)"/>
     <use xlink:href="#DejaVuSans-6f" transform="translate(513.34375 0)"/>
     <use xlink:href="#DejaVuSans-72" transform="translate(574.525391 0)"/>
     <use xlink:href="#DejaVuSans-69" transform="translate(615.638672 0)"/>
     <use xlink:href="#DejaVuSans-7a" transform="translate(643.421875 0)"/>
     <use xlink:href="#DejaVuSans-65" transform="translate(695.912109 0)"/>
     <use xlink:href="#DejaVuSans-72" transform="translate(757.435547 0)"/>
     <use xlink:href="#DejaVuSans-20" transform="translate(798.548828 0)"/>
     <use xlink:href="#DejaVuSans-28" transform="translate(830.335938 0)"/>
     <use xlink:href="#DejaVuSans-441" transform="translate(869.349609 0)"/>
     <use xlink:href="#DejaVuSans-20" transform="translate(924.330078 0)"/>
     <use xlink:href="#DejaVuSans-43f" transform="translate(956.117188 0)"/>
     <use xlink:href="#DejaVuSans-430" transform="translate(1021.498047 0)"/>
     <use xlink:href="#DejaVuSans-440" transform="translate(1082.777344 0)"/>
     <use xlink:href="#DejaVuSans-430" transform="translate(1146.253906 0)"/>
     <use xlink:href="#DejaVuSans-43c" transform="translate(1207.533203 0)"/>
     <use xlink:href="#DejaVuSans-435" transform="translate(1282.972656 0)"/>
     <use xlink:href="#DejaVuSans-442" transform="translate(1344.496094 0)"/>
     <use xlink:href="#DejaVuSans-440" transform="translate(1402.748047 0)"/>
     <use xlink:href="#DejaVuSans-430" transform="translate(1466.224609 0)"/>
     <use xlink:href="#DejaVuSans-43c" transform="translate(1527.503906 0)"/>
     <use xlink:href="#DejaVuSans-438" transform="translate(1602.943359 0)"/>
     <use xlink:href="#DejaVuSans-29" transform="translate(1667.933594 0)"/>
    </g>
   </g>
   <g id="legend_2">
    <g id="patch_73">
     <path d="M 596.41007 49.558125 
L 702.464757 49.558125 
Q 704.464757 49.558125 704.464757 47.558125 
L 704.464757 33.88 
Q 704.464757 31.88 702.464757 31.88 
L 596.41007 31.88 
Q 594.41007 31.88 594.41007 33.88 
L 594.41007 47.558125 
Q 594.41007 49.558125 596.41007 49.558125 
z
" style="fill: #ffffff; opacity: 0.8; stroke: #cccccc; stroke-linejoin: miter"/>
    </g>
    <g id="line2d_36">
     <path d="M 598.41007 39.978437 
L 608.41007 39.978437 
L 618.41007 39.978437 
" style="fill: none; stroke-dasharray: 5.55,2.4; stroke-dashoffset: 0; stroke: #ff0000; stroke-width: 1.5"/>
    </g>
    <g id="text_40">
     <!-- Среднее: 53.0 -->
     <g transform="translate(626.41007 43.478437) scale(0.1 -0.1)">
      <use xlink:href="#DejaVuSans-421"/>
      <use xlink:href="#DejaVuSans-440" transform="translate(69.824219 0)"/>
      <use xlink:href="#DejaVuSans-435" transform="translate(133.300781 0)"/>
      <use xlink:href="#DejaVuSans-434" transform="translate(194.824219 0)"/>
      <use xlink:href="#DejaVuSans-43d" transform="translate(263.964844 0)"/>
      <use xlink:href="#DejaVuSans-435" transform="translate(329.345703 0)"/>
      <use xlink:href="#DejaVuSans-435" transform="translate(390.869141 0)"/>
      <use xlink:href="#DejaVuSans-3a" transform="translate(452.392578 0)"/>
      <use xlink:href="#DejaVuSans-20" transform="translate(486.083984 0)"/>
      <use xlink:href="#DejaVuSans-35" transform="translate(517.871094 0)"/>
      <use xlink:href="#DejaVuSans-33" transform="translate(581.494141 0)"/>
      <use xlink:href="#DejaVuSans-2e" transform="translate(645.117188 0)"/>
      <use xlink:href="#DejaVuSans-30" transform="translate(676.904297 0)"/>
     </g>
    </g>
   </g>
  </g>
  <g id="axes_3">
   <g id="patch_74">
    <path d="M 774.945672 246.04 
L 1068.307593 246.04 
L 1068.307593 26.88 
L 774.945672 26.88 
z
" style="fill: #ffffff"/>
   </g>
   <g id="patch_75">
    <path d="M 788.280305 246.04 
L 797.17006 246.04 
L 797.17006 242.216052 
L 788.280305 242.216052 
z
" clip-path="url(#pd1925ba699)" style="fill: #1f77b4; opacity: 0.7; stroke: #000000; stroke-linejoin: miter"/>
   </g>
   <g id="patch_76">
    <path d="M 797.17006 246.04 
L 806.059815 246.04 
L 806.059815 244.287357 
L 797.17006 244.287357 
z
" clip-path="url(#pd1925ba699)" style="fill: #1f77b4; opacity: 0.7; stroke: #000000; stroke-linejoin: miter"/>
   </g>
   <g id="patch_77">
    <path d="M 806.059815 246.04 
L 814.94957 246.04 
L 814.94957 237.117455 
L 806.059815 237.117455 
z
" clip-path="url(#pd1925ba699)" style="fill: #1f77b4; opacity: 0.7; stroke: #000000; stroke-linejoin: miter"/>
   </g>
   <g id="patch_78">
    <path d="M 814.94957 246.04 
L 823.839326 246.04 
L 823.839326 218.475711 
L 814.94957 218.475711 
z
" clip-path="url(#pd1925ba699)" style="fill: #1f77b4; opacity: 0.7; stroke: #000000; stroke-linejoin: miter"/>
   </g>
   <g id="patch_79">
    <path d="M 823.839326 246.04 
L 832.729081 246.04 
L 832.729081 188.521454 
L 823.839326 188.521454 
z
" clip-path="url(#pd1925ba699)" style="fill: #1f77b4; opacity: 0.7; stroke: #000000; stroke-linejoin: miter"/>
   </g>
   <g id="patch_80">
    <path d="M 832.729081 246.04 
L 841.618836 246.04 
L 841.618836 107.103235 
L 832.729081 107.103235 
z
" clip-path="url(#pd1925ba699)" style="fill: #1f77b4; opacity: 0.7; stroke: #000000; stroke-linejoin: miter"/>
   </g>
   <g id="patch_81">
    <path d="M 841.618836 246.04 
L 850.508591 246.04 
L 850.508591 68.704427 
L 841.618836 68.704427 
z
" clip-path="url(#pd1925ba699)" style="fill: #1f77b4; opacity: 0.7; stroke: #000000; stroke-linejoin: miter"/>
   </g>
   <g id="patch_82">
    <path d="M 850.508591 246.04 
L 859.398346 246.04 
L 859.398346 37.31619 
L 850.508591 37.31619 
z
" clip-path="url(#pd1925ba699)" style="fill: #1f77b4; opacity: 0.7; stroke: #000000; stroke-linejoin: miter"/>
   </g>
   <g id="patch_83">
    <path d="M 859.398346 246.04 
L 868.288102 246.04 
L 868.288102 55.001948 
L 859.398346 55.001948 
z
" clip-path="url(#pd1925ba699)" style="fill: #1f77b4; opacity: 0.7; stroke: #000000; stroke-linejoin: miter"/>
   </g>
   <g id="patch_84">
    <path d="M 868.288102 246.04 
L 877.177857 246.04 
L 877.177857 44.486092 
L 868.288102 44.486092 
z
" clip-path="url(#pd1925ba699)" style="fill: #1f77b4; opacity: 0.7; stroke: #000000; stroke-linejoin: miter"/>
   </g>
   <g id="patch_85">
    <path d="M 877.177857 246.04 
L 886.067612 246.04 
L 886.067612 82.247575 
L 877.177857 82.247575 
z
" clip-path="url(#pd1925ba699)" style="fill: #1f77b4; opacity: 0.7; stroke: #000000; stroke-linejoin: miter"/>
   </g>
   <g id="patch_86">
    <path d="M 886.067612 246.04 
L 894.957367 246.04 
L 894.957367 115.547786 
L 886.067612 115.547786 
z
" clip-path="url(#pd1925ba699)" style="fill: #1f77b4; opacity: 0.7; stroke: #000000; stroke-linejoin: miter"/>
   </g>
   <g id="patch_87">
    <path d="M 894.957367 246.04 
L 903.847122 246.04 
L 903.847122 164.143788 
L 894.957367 164.143788 
z
" clip-path="url(#pd1925ba699)" style="fill: #1f77b4; opacity: 0.7; stroke: #000000; stroke-linejoin: miter"/>
   </g>
   <g id="patch_88">
    <path d="M 903.847122 246.04 
L 912.736878 246.04 
L 912.736878 172.269676 
L 903.847122 172.269676 
z
" clip-path="url(#pd1925ba699)" style="fill: #1f77b4; opacity: 0.7; stroke: #000000; stroke-linejoin: miter"/>
   </g>
   <g id="patch_89">
    <path d="M 912.736878 246.04 
L 921.626633 246.04 
L 921.626633 197.60333 
L 912.736878 197.60333 
z
" clip-path="url(#pd1925ba699)" style="fill: #1f77b4; opacity: 0.7; stroke: #000000; stroke-linejoin: miter"/>
   </g>
   <g id="patch_90">
    <path d="M 921.626633 246.04 
L 930.516388 246.04 
L 930.516388 212.102465 
L 921.626633 212.102465 
z
" clip-path="url(#pd1925ba699)" style="fill: #1f77b4; opacity: 0.7; stroke: #000000; stroke-linejoin: miter"/>
   </g>
   <g id="patch_91">
    <path d="M 930.516388 246.04 
L 939.406143 246.04 
L 939.406143 227.716917 
L 930.516388 227.716917 
z
" clip-path="url(#pd1925ba699)" style="fill: #1f77b4; opacity: 0.7; stroke: #000000; stroke-linejoin: miter"/>
   </g>
   <g id="patch_92">
    <path d="M 939.406143 246.04 
L 948.295898 246.04 
L 948.295898 237.914111 
L 939.406143 237.914111 
z
" clip-path="url(#pd1925ba699)" style="fill: #1f77b4; opacity: 0.7; stroke: #000000; stroke-linejoin: miter"/>
   </g>
   <g id="patch_93">
    <path d="M 948.295898 246.04 
L 957.185653 246.04 
L 957.185653 237.276787 
L 948.295898 237.276787 
z
" clip-path="url(#pd1925ba699)" style="fill: #1f77b4; opacity: 0.7; stroke: #000000; stroke-linejoin: miter"/>
   </g>
   <g id="patch_94">
    <path d="M 957.185653 246.04 
L 966.075409 246.04 
L 966.075409 242.534715 
L 957.185653 242.534715 
z
" clip-path="url(#pd1925ba699)" style="fill: #1f77b4; opacity: 0.7; stroke: #000000; stroke-linejoin: miter"/>
   </g>
   <g id="patch_95">
    <path d="M 966.075409 246.04 
L 974.965164 246.04 
L 974.965164 244.446688 
L 966.075409 244.446688 
z
" clip-path="url(#pd1925ba699)" style="fill: #1f77b4; opacity: 0.7; stroke: #000000; stroke-linejoin: miter"/>
   </g>
   <g id="patch_96">
    <path d="M 974.965164 246.04 
L 983.854919 246.04 
L 983.854919 244.60602 
L 974.965164 244.60602 
z
" clip-path="url(#pd1925ba699)" style="fill: #1f77b4; opacity: 0.7; stroke: #000000; stroke-linejoin: miter"/>
   </g>
   <g id="patch_97">
    <path d="M 983.854919 246.04 
L 992.744674 246.04 
L 992.744674 245.402675 
L 983.854919 245.402675 
z
" clip-path="url(#pd1925ba699)" style="fill: #1f77b4; opacity: 0.7; stroke: #000000; stroke-linejoin: miter"/>
   </g>
   <g id="patch_98">
    <path d="M 992.744674 246.04 
L 1001.634429 246.04 
L 1001.634429 245.402675 
L 992.744674 245.402675 
z
" clip-path="url(#pd1925ba699)" style="fill: #1f77b4; opacity: 0.7; stroke: #000000; stroke-linejoin: miter"/>
   </g>
   <g id="patch_99">
    <path d="M 1001.634429 246.04 
L 1010.524185 246.04 
L 1010.524185 245.880669 
L 1001.634429 245.880669 
z
" clip-path="url(#pd1925ba699)" style="fill: #1f77b4; opacity: 0.7; stroke: #000000; stroke-linejoin: miter"/>
   </g>
   <g id="patch_100">
    <path d="M 1010.524185 246.04 
L 1019.41394 246.04 
L 1019.41394 246.04 
L 1010.524185 246.04 
z
" clip-path="url(#pd1925ba699)" style="fill: #1f77b4; opacity: 0.7; stroke: #000000; stroke-linejoin: miter"/>
   </g>
   <g id="patch_101">
    <path d="M 1019.41394 246.04 
L 1028.303695 246.04 
L 1028.303695 245.880669 
L 1019.41394 245.880669 
z
" clip-path="url(#pd1925ba699)" style="fill: #1f77b4; opacity: 0.7; stroke: #000000; stroke-linejoin: miter"/>
   </g>
   <g id="patch_102">
    <path d="M 1028.303695 246.04 
L 1037.19345 246.04 
L 1037.19345 245.721338 
L 1028.303695 245.721338 
z
" clip-path="url(#pd1925ba699)" style="fill: #1f77b4; opacity: 0.7; stroke: #000000; stroke-linejoin: miter"/>
   </g>
   <g id="patch_103">
    <path d="M 1037.19345 246.04 
L 1046.083205 246.04 
L 1046.083205 246.04 
L 1037.19345 246.04 
z
" clip-path="url(#pd1925ba699)" style="fill: #1f77b4; opacity: 0.7; stroke: #000000; stroke-linejoin: miter"/>
   </g>
   <g id="patch_104">
    <path d="M 1046.083205 246.04 
L 1054.972961 246.04 
L 1054.972961 245.880669 
L 1046.083205 245.880669 
z
" clip-path="url(#pd1925ba699)" style="fill: #1f77b4; opacity: 0.7; stroke: #000000; stroke-linejoin: miter"/>
   </g>
   <g id="matplotlib.axis_5">
    <g id="xtick_17">
     <g id="line2d_37">
      <g>
       <use xlink:href="#mcfe17c1160" x="788.280305" y="246.04" style="stroke: #000000; stroke-width: 0.8"/>
      </g>
     </g>
     <g id="text_41">
      <!-- 0 -->
      <g transform="translate(785.099055 260.638438) scale(0.1 -0.1)">
       <use xlink:href="#DejaVuSans-30"/>
      </g>
     </g>
    </g>
    <g id="xtick_18">
     <g id="line2d_38">
      <g>
       <use xlink:href="#mcfe17c1160" x="826.819706" y="246.04" style="stroke: #000000; stroke-width: 0.8"/>
      </g>
     </g>
     <g id="text_42">
      <!-- 25 -->
      <g transform="translate(820.457206 260.638438) scale(0.1 -0.1)">
       <use xlink:href="#DejaVuSans-32"/>
       <use xlink:href="#DejaVuSans-35" transform="translate(63.623047 0)"/>
      </g>
     </g>
    </g>
    <g id="xtick_19">
     <g id="line2d_39">
      <g>
       <use xlink:href="#mcfe17c1160" x="865.359107" y="246.04" style="stroke: #000000; stroke-width: 0.8"/>
      </g>
     </g>
     <g id="text_43">
      <!-- 50 -->
      <g transform="translate(858.996607 260.638438) scale(0.1 -0.1)">
       <use xlink:href="#DejaVuSans-35"/>
       <use xlink:href="#DejaVuSans-30" transform="translate(63.623047 0)"/>
      </g>
     </g>
    </g>
    <g id="xtick_20">
     <g id="line2d_40">
      <g>
       <use xlink:href="#mcfe17c1160" x="903.898508" y="246.04" style="stroke: #000000; stroke-width: 0.8"/>
      </g>
     </g>
     <g id="text_44">
      <!-- 75 -->
      <g transform="translate(897.536008 260.638438) scale(0.1 -0.1)">
       <use xlink:href="#DejaVuSans-37"/>
       <use xlink:href="#DejaVuSans-35" transform="translate(63.623047 0)"/>
      </g>
     </g>
    </g>
    <g id="xtick_21">
     <g id="line2d_41">
      <g>
       <use xlink:href="#mcfe17c1160" x="942.437909" y="246.04" style="stroke: #000000; stroke-width: 0.8"/>
      </g>
     </g>
     <g id="text_45">
      <!-- 100 -->
      <g transform="translate(932.894159 260.638438) scale(0.1 -0.1)">
       <use xlink:href="#DejaVuSans-31"/>
       <use xlink:href="#DejaVuSans-30" transform="translate(63.623047 0)"/>
       <use xlink:href="#DejaVuSans-30" transform="translate(127.246094 0)"/>
      </g>
     </g>
    </g>
    <g id="xtick_22">
     <g id="line2d_42">
      <g>
       <use xlink:href="#mcfe17c1160" x="980.97731" y="246.04" style="stroke: #000000; stroke-width: 0.8"/>
      </g>
     </g>
     <g id="text_46">
      <!-- 125 -->
      <g transform="translate(971.43356 260.638438) scale(0.1 -0.1)">
       <use xlink:href="#DejaVuSans-31"/>
       <use xlink:href="#DejaVuSans-32" transform="translate(63.623047 0)"/>
       <use xlink:href="#DejaVuSans-35" transform="translate(127.246094 0)"/>
      </g>
     </g>
    </g>
    <g id="xtick_23">
     <g id="line2d_43">
      <g>
       <use xlink:href="#mcfe17c1160" x="1019.516712" y="246.04" style="stroke: #000000; stroke-width: 0.8"/>
      </g>
     </g>
     <g id="text_47">
      <!-- 150 -->
      <g transform="translate(1009.972962 260.638438) scale(0.1 -0.1)">
       <use xlink:href="#DejaVuSans-31"/>
       <use xlink:href="#DejaVuSans-35" transform="translate(63.623047 0)"/>
       <use xlink:href="#DejaVuSans-30" transform="translate(127.246094 0)"/>
      </g>
     </g>
    </g>
    <g id="xtick_24">
     <g id="line2d_44">
      <g>
       <use xlink:href="#mcfe17c1160" x="1058.056113" y="246.04" style="stroke: #000000; stroke-width: 0.8"/>
      </g>
     </g>
     <g id="text_48">
      <!-- 175 -->
      <g transform="translate(1048.512363 260.638438) scale(0.1 -0.1)">
       <use xlink:href="#DejaVuSans-31"/>
       <use xlink:href="#DejaVuSans-37" transform="translate(63.623047 0)"/>
       <use xlink:href="#DejaVuSans-35" transform="translate(127.246094 0)"/>
      </g>
     </g>
    </g>
    <g id="text_49">
     <!-- Признаков в документе -->
     <g transform="translate(858.697726 274.316562) scale(0.1 -0.1)">
      <use xlink:href="#DejaVuSans-41f"/>
      <use xlink:href="#DejaVuSans-440" transform="translate(75.195312 0)"/>
      <use xlink:href="#DejaVuSans-438" transform="translate(138.671875 0)"/>
      <use xlink:href="#DejaVuSans-437" transform="translate(203.662109 0)"/>
      <use xlink:href="#DejaVuSans-43d" transform="translate(256.835938 0)"/>
      <use xlink:href="#DejaVuSans-430" transform="translate(322.216797 0)"/>
      <use xlink:href="#DejaVuSans-43a" transform="translate(383.496094 0)"/>
      <use xlink:href="#DejaVuSans-43e" transform="translate(443.896484 0)"/>
      <use xlink:href="#DejaVuSans-432" transform="translate(505.078125 0)"/>
      <use xlink:href="#DejaVuSans-20" transform="translate(564.013672 0)"/>
      <use xlink:href="#DejaVuSans-432" transform="translate(595.800781 0)"/>
      <use xlink:href="#DejaVuSans-20" transform="translate(654.736328 0)"/>
      <use xlink:href="#DejaVuSans-434" transform="translate(686.523438 0)"/>
      <use xlink:href="#DejaVuSans-43e" transform="translate(755.664062 0)"/>
      <use xlink:href="#DejaVuSans-43a" transform="translate(816.845703 0)"/>
      <use xlink:href="#DejaVuSans-443" transform="translate(877.246094 0)"/>
      <use xlink:href="#DejaVuSans-43c" transform="translate(936.425781 0)"/>
      <use xlink:href="#DejaVuSans-435" transform="translate(1011.865234 0)"/>
      <use xlink:href="#DejaVuSans-43d" transform="translate(1073.388672 0)"/>
      <use xlink:href="#DejaVuSans-442" transform="translate(1138.769531 0)"/>
      <use xlink:href="#DejaVuSans-435" transform="translate(1197.021484 0)"/>
     </g>
    </g>
   </g>
   <g id="matplotlib.axis_6">
    <g id="ytick_17">
     <g id="line2d_45">
      <g>
       <use xlink:href="#m156237a3fb" x="774.945672" y="246.04" style="stroke: #000000; stroke-width: 0.8"/>
      </g>
     </g>
     <g id="text_50">
      <!-- 0 -->
      <g transform="translate(761.583172 249.839219) scale(0.1 -0.1)">
       <use xlink:href="#DejaVuSans-30"/>
      </g>
     </g>
    </g>
    <g id="ytick_18">
     <g id="line2d_46">
      <g>
       <use xlink:href="#m156237a3fb" x="774.945672" y="214.17377" style="stroke: #000000; stroke-width: 0.8"/>
      </g>
     </g>
     <g id="text_51">
      <!-- 200 -->
      <g transform="translate(748.858172 217.972988) scale(0.1 -0.1)">
       <use xlink:href="#DejaVuSans-32"/>
       <use xlink:href="#DejaVuSans-30" transform="translate(63.623047 0)"/>
       <use xlink:href="#DejaVuSans-30" transform="translate(127.246094 0)"/>
      </g>
     </g>
    </g>
    <g id="ytick_19">
     <g id="line2d_47">
      <g>
       <use xlink:href="#m156237a3fb" x="774.945672" y="182.307539" style="stroke: #000000; stroke-width: 0.8"/>
      </g>
     </g>
     <g id="text_52">
      <!-- 400 -->
      <g transform="translate(748.858172 186.106758) scale(0.1 -0.1)">
       <use xlink:href="#DejaVuSans-34"/>
       <use xlink:href="#DejaVuSans-30" transform="translate(63.623047 0)"/>
       <use xlink:href="#DejaVuSans-30" transform="translate(127.246094 0)"/>
      </g>
     </g>
    </g>
    <g id="ytick_20">
     <g id="line2d_48">
      <g>
       <use xlink:href="#m156237a3fb" x="774.945672" y="150.441309" style="stroke: #000000; stroke-width: 0.8"/>
      </g>
     </g>
     <g id="text_53">
      <!-- 600 -->
      <g transform="translate(748.858172 154.240527) scale(0.1 -0.1)">
       <use xlink:href="#DejaVuSans-36"/>
       <use xlink:href="#DejaVuSans-30" transform="translate(63.623047 0)"/>
       <use xlink:href="#DejaVuSans-30" transform="translate(127.246094 0)"/>
      </g>
     </g>
    </g>
    <g id="ytick_21">
     <g id="line2d_49">
      <g>
       <use xlink:href="#m156237a3fb" x="774.945672" y="118.575078" style="stroke: #000000; stroke-width: 0.8"/>
      </g>
     </g>
     <g id="text_54">
      <!-- 800 -->
      <g transform="translate(748.858172 122.374297) scale(0.1 -0.1)">
       <use xlink:href="#DejaVuSans-38"/>
       <use xlink:href="#DejaVuSans-30" transform="translate(63.623047 0)"/>
       <use xlink:href="#DejaVuSans-30" transform="translate(127.246094 0)"/>
      </g>
     </g>
    </g>
    <g id="ytick_22">
     <g id="line2d_50">
      <g>
       <use xlink:href="#m156237a3fb" x="774.945672" y="86.708848" style="stroke: #000000; stroke-width: 0.8"/>
      </g>
     </g>
     <g id="text_55">
      <!-- 1000 -->
      <g transform="translate(742.495672 90.508066) scale(0.1 -0.1)">
       <use xlink:href="#DejaVuSans-31"/>
       <use xlink:href="#DejaVuSans-30" transform="translate(63.623047 0)"/>
       <use xlink:href="#DejaVuSans-30" transform="translate(127.246094 0)"/>
       <use xlink:href="#DejaVuSans-30" transform="translate(190.869141 0)"/>
      </g>
     </g>
    </g>
    <g id="ytick_23">
     <g id="line2d_51">
      <g>
       <use xlink:href="#m156237a3fb" x="774.945672" y="54.842617" style="stroke: #000000; stroke-width: 0.8"/>
      </g>
     </g>
     <g id="text_56">
      <!-- 1200 -->
      <g transform="translate(742.495672 58.641836) scale(0.1 -0.1)">
       <use xlink:href="#DejaVuSans-31"/>
       <use xlink:href="#DejaVuSans-32" transform="translate(63.623047 0)"/>
       <use xlink:href="#DejaVuSans-30" transform="translate(127.246094 0)"/>
       <use xlink:href="#DejaVuSans-30" transform="translate(190.869141 0)"/>
      </g>
     </g>
    </g>
    <g id="text_57">
     <!-- Частота -->
     <g transform="translate(736.415984 157.649844) rotate(-90) scale(0.1 -0.1)">
      <use xlink:href="#DejaVuSans-427"/>
      <use xlink:href="#DejaVuSans-430" transform="translate(68.554688 0)"/>
      <use xlink:href="#DejaVuSans-441" transform="translate(129.833984 0)"/>
      <use xlink:href="#DejaVuSans-442" transform="translate(184.814453 0)"/>
      <use xlink:href="#DejaVuSans-43e" transform="translate(243.066406 0)"/>
      <use xlink:href="#DejaVuSans-442" transform="translate(304.248047 0)"/>
      <use xlink:href="#DejaVuSans-430" transform="translate(362.5 0)"/>
     </g>
    </g>
   </g>
   <g id="line2d_52">
    <path d="M 870.027462 246.04 
L 870.027462 26.88 
" clip-path="url(#pd1925ba699)" style="fill: none; stroke-dasharray: 5.55,2.4; stroke-dashoffset: 0; stroke: #ff0000; stroke-width: 1.5"/>
   </g>
   <g id="patch_105">
    <path d="M 774.945672 246.04 
L 774.945672 26.88 
" style="fill: none; stroke: #000000; stroke-width: 0.8; stroke-linejoin: miter; stroke-linecap: square"/>
   </g>
   <g id="patch_106">
    <path d="M 1068.307593 246.04 
L 1068.307593 26.88 
" style="fill: none; stroke: #000000; stroke-width: 0.8; stroke-linejoin: miter; stroke-linecap: square"/>
   </g>
   <g id="patch_107">
    <path d="M 774.945672 246.04 
L 1068.307593 246.04 
" style="fill: none; stroke: #000000; stroke-width: 0.8; stroke-linejoin: miter; stroke-linecap: square"/>
   </g>
   <g id="patch_108">
    <path d="M 774.945672 26.88 
L 1068.307593 26.88 
" style="fill: none; stroke: #000000; stroke-width: 0.8; stroke-linejoin: miter; stroke-linecap: square"/>
   </g>
   <g id="text_58">
    <!-- TfidfVectorizer (с параметрами) -->
    <g transform="translate(823.66257 20.88) scale(0.12 -0.12)">
     <defs>
      <path id="DejaVuSans-54" d="M -19 4666 
L 3928 4666 
L 3928 4134 
L 2272 4134 
L 2272 0 
L 1638 0 
L 1638 4134 
L -19 4134 
L -19 4666 
z
" transform="scale(0.015625)"/>
      <path id="DejaVuSans-66" d="M 2375 4863 
L 2375 4384 
L 1825 4384 
Q 1516 4384 1395 4259 
Q 1275 4134 1275 3809 
L 1275 3500 
L 2222 3500 
L 2222 3053 
L 1275 3053 
L 1275 0 
L 697 0 
L 697 3053 
L 147 3053 
L 147 3500 
L 697 3500 
L 697 3744 
Q 697 4328 969 4595 
Q 1241 4863 1831 4863 
L 2375 4863 
z
" transform="scale(0.015625)"/>
      <path id="DejaVuSans-64" d="M 2906 2969 
L 2906 4863 
L 3481 4863 
L 3481 0 
L 2906 0 
L 2906 525 
Q 2725 213 2448 61 
Q 2172 -91 1784 -91 
Q 1150 -91 751 415 
Q 353 922 353 1747 
Q 353 2572 751 3078 
Q 1150 3584 1784 3584 
Q 2172 3584 2448 3432 
Q 2725 3281 2906 2969 
z
M 947 1747 
Q 947 1113 1208 752 
Q 1469 391 1925 391 
Q 2381 391 2643 752 
Q 2906 1113 2906 1747 
Q 2906 2381 2643 2742 
Q 2381 3103 1925 3103 
Q 1469 3103 1208 2742 
Q 947 2381 947 1747 
z
" transform="scale(0.015625)"/>
     </defs>
     <use xlink:href="#DejaVuSans-54"/>
     <use xlink:href="#DejaVuSans-66" transform="translate(61.083984 0)"/>
     <use xlink:href="#DejaVuSans-69" transform="translate(96.289062 0)"/>
     <use xlink:href="#DejaVuSans-64" transform="translate(124.072266 0)"/>
     <use xlink:href="#DejaVuSans-66" transform="translate(187.548828 0)"/>
     <use xlink:href="#DejaVuSans-56" transform="translate(222.753906 0)"/>
     <use xlink:href="#DejaVuSans-65" transform="translate(283.412109 0)"/>
     <use xlink:href="#DejaVuSans-63" transform="translate(344.935547 0)"/>
     <use xlink:href="#DejaVuSans-74" transform="translate(399.916016 0)"/>
     <use xlink:href="#DejaVuSans-6f" transform="translate(439.125 0)"/>
     <use xlink:href="#DejaVuSans-72" transform="translate(500.306641 0)"/>
     <use xlink:href="#DejaVuSans-69" transform="translate(541.419922 0)"/>
     <use xlink:href="#DejaVuSans-7a" transform="translate(569.203125 0)"/>
     <use xlink:href="#DejaVuSans-65" transform="translate(621.693359 0)"/>
     <use xlink:href="#DejaVuSans-72" transform="translate(683.216797 0)"/>
     <use xlink:href="#DejaVuSans-20" transform="translate(724.330078 0)"/>
     <use xlink:href="#DejaVuSans-28" transform="translate(756.117188 0)"/>
     <use xlink:href="#DejaVuSans-441" transform="translate(795.130859 0)"/>
     <use xlink:href="#DejaVuSans-20" transform="translate(850.111328 0)"/>
     <use xlink:href="#DejaVuSans-43f" transform="translate(881.898438 0)"/>
     <use xlink:href="#DejaVuSans-430" transform="translate(947.279297 0)"/>
     <use xlink:href="#DejaVuSans-440" transform="translate(1008.558594 0)"/>
     <use xlink:href="#DejaVuSans-430" transform="translate(1072.035156 0)"/>
     <use xlink:href="#DejaVuSans-43c" transform="translate(1133.314453 0)"/>
     <use xlink:href="#DejaVuSans-435" transform="translate(1208.753906 0)"/>
     <use xlink:href="#DejaVuSans-442" transform="translate(1270.277344 0)"/>
     <use xlink:href="#DejaVuSans-440" transform="translate(1328.529297 0)"/>
     <use xlink:href="#DejaVuSans-430" transform="translate(1392.005859 0)"/>
     <use xlink:href="#DejaVuSans-43c" transform="translate(1453.285156 0)"/>
     <use xlink:href="#DejaVuSans-438" transform="translate(1528.724609 0)"/>
     <use xlink:href="#DejaVuSans-29" transform="translate(1593.714844 0)"/>
    </g>
   </g>
   <g id="legend_3">
    <g id="patch_109">
     <path d="M 955.252906 49.558125 
L 1061.307593 49.558125 
Q 1063.307593 49.558125 1063.307593 47.558125 
L 1063.307593 33.88 
Q 1063.307593 31.88 1061.307593 31.88 
L 955.252906 31.88 
Q 953.252906 31.88 953.252906 33.88 
L 953.252906 47.558125 
Q 953.252906 49.558125 955.252906 49.558125 
z
" style="fill: #ffffff; opacity: 0.8; stroke: #cccccc; stroke-linejoin: miter"/>
    </g>
    <g id="line2d_53">
     <path d="M 957.252906 39.978437 
L 967.252906 39.978437 
L 977.252906 39.978437 
" style="fill: none; stroke-dasharray: 5.55,2.4; stroke-dashoffset: 0; stroke: #ff0000; stroke-width: 1.5"/>
    </g>
    <g id="text_59">
     <!-- Среднее: 53.0 -->
     <g transform="translate(985.252906 43.478437) scale(0.1 -0.1)">
      <use xlink:href="#DejaVuSans-421"/>
      <use xlink:href="#DejaVuSans-440" transform="translate(69.824219 0)"/>
      <use xlink:href="#DejaVuSans-435" transform="translate(133.300781 0)"/>
      <use xlink:href="#DejaVuSans-434" transform="translate(194.824219 0)"/>
      <use xlink:href="#DejaVuSans-43d" transform="translate(263.964844 0)"/>
      <use xlink:href="#DejaVuSans-435" transform="translate(329.345703 0)"/>
      <use xlink:href="#DejaVuSans-435" transform="translate(390.869141 0)"/>
      <use xlink:href="#DejaVuSans-3a" transform="translate(452.392578 0)"/>
      <use xlink:href="#DejaVuSans-20" transform="translate(486.083984 0)"/>
      <use xlink:href="#DejaVuSans-35" transform="translate(517.871094 0)"/>
      <use xlink:href="#DejaVuSans-33" transform="translate(581.494141 0)"/>
      <use xlink:href="#DejaVuSans-2e" transform="translate(645.117188 0)"/>
      <use xlink:href="#DejaVuSans-30" transform="translate(676.904297 0)"/>
     </g>
    </g>
   </g>
  </g>
 </g>
 <defs>
  <clipPath id="p14f3eb440c">
   <rect x="57.26" y="26.88" width="293.361921" height="219.16"/>
  </clipPath>
  <clipPath id="p1e5dd62a21">
   <rect x="416.102836" y="26.88" width="293.361921" height="219.16"/>
  </clipPath>
  <clipPath id="pd1925ba699">
   <rect x="774.945672" y="26.88" width="293.361921" height="219.16"/>
  </clipPath>
 </defs>
</svg>
